M48
; DRILL file {KiCad (5.1.4)-1} date 08/11/2019 15:33:34
; FORMAT={-:-/ absolute / inch / decimal}
; #@! TF.CreationDate,2019-11-08T15:33:34+07:00
; #@! TF.GenerationSoftware,Kicad,Pcbnew,(5.1.4)-1
; #@! TF.FileFunction,Plated,1,2,PTH
FMAT,2
INCH
T1C0.0157
T2C0.0197
T3C0.0315
T4C0.0354
T5C0.0394
T6C0.0433
%
G90
G05
T1
X5.475Y-4.1
T2
X5.755Y-4.1
T3
X5.6866Y-4.265
X5.785Y-4.265
X5.925Y-4.385
X5.925Y-4.785
X5.97Y-2.785
X5.97Y-3.185
X5.3766Y-4.265
X5.475Y-4.265
T4
X5.97Y-3.37
X6.07Y-3.37
X5.97Y-4.185
X6.07Y-4.185
X6.0582Y-3.6838
X6.0582Y-3.7822
X6.0582Y-3.8806
T5
X6.22Y-4.65
X6.22Y-4.75
X6.32Y-4.65
X6.32Y-4.75
X6.22Y-2.75
X6.22Y-2.85
X6.32Y-2.75
X6.32Y-2.85
T6
X5.335Y-3.6967
X5.735Y-3.6967
X5.335Y-3.4833
X5.735Y-3.4833
X5.465Y-4.575
X5.565Y-4.575
X5.665Y-4.575
X5.335Y-3.27
X5.735Y-3.27
X5.335Y-3.91
X5.735Y-3.91
T5
G00X5.5588Y-2.7956
M15
G01X5.5588Y-2.8744
M16
G05
G00X5.6375Y-3.02
M15
G01X5.7163Y-3.02
M16
G05
G00X5.795Y-2.7956
M15
G01X5.795Y-2.8744
M16
G05
T0
M30
