G04 #@! TF.GenerationSoftware,KiCad,Pcbnew,(5.1.4)-1*
G04 #@! TF.CreationDate,2019-11-08T15:33:28+07:00*
G04 #@! TF.ProjectId,PowerForBreadboard,506f7765-7246-46f7-9242-72656164626f,rev?*
G04 #@! TF.SameCoordinates,Original*
G04 #@! TF.FileFunction,Legend,Top*
G04 #@! TF.FilePolarity,Positive*
%FSLAX46Y46*%
G04 Gerber Fmt 4.6, Leading zero omitted, Abs format (unit mm)*
G04 Created by KiCad (PCBNEW (5.1.4)-1) date 2019-11-08 15:33:28*
%MOMM*%
%LPD*%
G04 APERTURE LIST*
%ADD10C,0.250000*%
%ADD11C,0.300000*%
%ADD12C,0.120000*%
%ADD13C,0.100000*%
%ADD14C,0.150000*%
G04 APERTURE END LIST*
D10*
X153924095Y-72529000D02*
X153828857Y-72457571D01*
X153686000Y-72457571D01*
X153543142Y-72529000D01*
X153447904Y-72671857D01*
X153400285Y-72814714D01*
X153352666Y-73100428D01*
X153352666Y-73314714D01*
X153400285Y-73600428D01*
X153447904Y-73743285D01*
X153543142Y-73886142D01*
X153686000Y-73957571D01*
X153781238Y-73957571D01*
X153924095Y-73886142D01*
X153971714Y-73814714D01*
X153971714Y-73314714D01*
X153781238Y-73314714D01*
X154400285Y-73957571D02*
X154400285Y-72457571D01*
X154971714Y-73957571D01*
X154971714Y-72457571D01*
X155447904Y-73957571D02*
X155447904Y-72457571D01*
X155686000Y-72457571D01*
X155828857Y-72529000D01*
X155924095Y-72671857D01*
X155971714Y-72814714D01*
X156019333Y-73100428D01*
X156019333Y-73314714D01*
X155971714Y-73600428D01*
X155924095Y-73743285D01*
X155828857Y-73886142D01*
X155686000Y-73957571D01*
X155447904Y-73957571D01*
D11*
X154527285Y-68266571D02*
X153813000Y-68266571D01*
X153741571Y-68980857D01*
X153813000Y-68909428D01*
X153955857Y-68838000D01*
X154313000Y-68838000D01*
X154455857Y-68909428D01*
X154527285Y-68980857D01*
X154598714Y-69123714D01*
X154598714Y-69480857D01*
X154527285Y-69623714D01*
X154455857Y-69695142D01*
X154313000Y-69766571D01*
X153955857Y-69766571D01*
X153813000Y-69695142D01*
X153741571Y-69623714D01*
X155027285Y-68266571D02*
X155527285Y-69766571D01*
X156027285Y-68266571D01*
X153035142Y-120154000D02*
X152892285Y-120082571D01*
X152678000Y-120082571D01*
X152463714Y-120154000D01*
X152320857Y-120296857D01*
X152249428Y-120439714D01*
X152178000Y-120725428D01*
X152178000Y-120939714D01*
X152249428Y-121225428D01*
X152320857Y-121368285D01*
X152463714Y-121511142D01*
X152678000Y-121582571D01*
X152820857Y-121582571D01*
X153035142Y-121511142D01*
X153106571Y-121439714D01*
X153106571Y-120939714D01*
X152820857Y-120939714D01*
X153749428Y-121582571D02*
X153749428Y-120082571D01*
X154606571Y-121582571D01*
X154606571Y-120082571D01*
X155320857Y-121582571D02*
X155320857Y-120082571D01*
X155678000Y-120082571D01*
X155892285Y-120154000D01*
X156035142Y-120296857D01*
X156106571Y-120439714D01*
X156178000Y-120725428D01*
X156178000Y-120939714D01*
X156106571Y-121225428D01*
X156035142Y-121368285D01*
X155892285Y-121511142D01*
X155678000Y-121582571D01*
X155320857Y-121582571D01*
X154527285Y-117034571D02*
X153813000Y-117034571D01*
X153741571Y-117748857D01*
X153813000Y-117677428D01*
X153955857Y-117606000D01*
X154313000Y-117606000D01*
X154455857Y-117677428D01*
X154527285Y-117748857D01*
X154598714Y-117891714D01*
X154598714Y-118248857D01*
X154527285Y-118391714D01*
X154455857Y-118463142D01*
X154313000Y-118534571D01*
X153955857Y-118534571D01*
X153813000Y-118463142D01*
X153741571Y-118391714D01*
X155027285Y-117034571D02*
X155527285Y-118534571D01*
X156027285Y-117034571D01*
D12*
X148959000Y-108331000D02*
G75*
G03X148959000Y-108331000I-3270000J0D01*
G01*
X145689000Y-111561000D02*
X145689000Y-105101000D01*
X145649000Y-111561000D02*
X145649000Y-105101000D01*
X145609000Y-111561000D02*
X145609000Y-105101000D01*
X145569000Y-111559000D02*
X145569000Y-105103000D01*
X145529000Y-111558000D02*
X145529000Y-105104000D01*
X145489000Y-111555000D02*
X145489000Y-105107000D01*
X145449000Y-111553000D02*
X145449000Y-109371000D01*
X145449000Y-107291000D02*
X145449000Y-105109000D01*
X145409000Y-111549000D02*
X145409000Y-109371000D01*
X145409000Y-107291000D02*
X145409000Y-105113000D01*
X145369000Y-111546000D02*
X145369000Y-109371000D01*
X145369000Y-107291000D02*
X145369000Y-105116000D01*
X145329000Y-111542000D02*
X145329000Y-109371000D01*
X145329000Y-107291000D02*
X145329000Y-105120000D01*
X145289000Y-111537000D02*
X145289000Y-109371000D01*
X145289000Y-107291000D02*
X145289000Y-105125000D01*
X145249000Y-111532000D02*
X145249000Y-109371000D01*
X145249000Y-107291000D02*
X145249000Y-105130000D01*
X145209000Y-111526000D02*
X145209000Y-109371000D01*
X145209000Y-107291000D02*
X145209000Y-105136000D01*
X145169000Y-111520000D02*
X145169000Y-109371000D01*
X145169000Y-107291000D02*
X145169000Y-105142000D01*
X145129000Y-111513000D02*
X145129000Y-109371000D01*
X145129000Y-107291000D02*
X145129000Y-105149000D01*
X145089000Y-111506000D02*
X145089000Y-109371000D01*
X145089000Y-107291000D02*
X145089000Y-105156000D01*
X145049000Y-111498000D02*
X145049000Y-109371000D01*
X145049000Y-107291000D02*
X145049000Y-105164000D01*
X145009000Y-111490000D02*
X145009000Y-109371000D01*
X145009000Y-107291000D02*
X145009000Y-105172000D01*
X144968000Y-111481000D02*
X144968000Y-109371000D01*
X144968000Y-107291000D02*
X144968000Y-105181000D01*
X144928000Y-111472000D02*
X144928000Y-109371000D01*
X144928000Y-107291000D02*
X144928000Y-105190000D01*
X144888000Y-111462000D02*
X144888000Y-109371000D01*
X144888000Y-107291000D02*
X144888000Y-105200000D01*
X144848000Y-111452000D02*
X144848000Y-109371000D01*
X144848000Y-107291000D02*
X144848000Y-105210000D01*
X144808000Y-111441000D02*
X144808000Y-109371000D01*
X144808000Y-107291000D02*
X144808000Y-105221000D01*
X144768000Y-111429000D02*
X144768000Y-109371000D01*
X144768000Y-107291000D02*
X144768000Y-105233000D01*
X144728000Y-111417000D02*
X144728000Y-109371000D01*
X144728000Y-107291000D02*
X144728000Y-105245000D01*
X144688000Y-111405000D02*
X144688000Y-109371000D01*
X144688000Y-107291000D02*
X144688000Y-105257000D01*
X144648000Y-111392000D02*
X144648000Y-109371000D01*
X144648000Y-107291000D02*
X144648000Y-105270000D01*
X144608000Y-111378000D02*
X144608000Y-109371000D01*
X144608000Y-107291000D02*
X144608000Y-105284000D01*
X144568000Y-111364000D02*
X144568000Y-109371000D01*
X144568000Y-107291000D02*
X144568000Y-105298000D01*
X144528000Y-111349000D02*
X144528000Y-109371000D01*
X144528000Y-107291000D02*
X144528000Y-105313000D01*
X144488000Y-111333000D02*
X144488000Y-109371000D01*
X144488000Y-107291000D02*
X144488000Y-105329000D01*
X144448000Y-111317000D02*
X144448000Y-109371000D01*
X144448000Y-107291000D02*
X144448000Y-105345000D01*
X144408000Y-111301000D02*
X144408000Y-109371000D01*
X144408000Y-107291000D02*
X144408000Y-105361000D01*
X144368000Y-111283000D02*
X144368000Y-109371000D01*
X144368000Y-107291000D02*
X144368000Y-105379000D01*
X144328000Y-111265000D02*
X144328000Y-109371000D01*
X144328000Y-107291000D02*
X144328000Y-105397000D01*
X144288000Y-111247000D02*
X144288000Y-109371000D01*
X144288000Y-107291000D02*
X144288000Y-105415000D01*
X144248000Y-111227000D02*
X144248000Y-109371000D01*
X144248000Y-107291000D02*
X144248000Y-105435000D01*
X144208000Y-111207000D02*
X144208000Y-109371000D01*
X144208000Y-107291000D02*
X144208000Y-105455000D01*
X144168000Y-111187000D02*
X144168000Y-109371000D01*
X144168000Y-107291000D02*
X144168000Y-105475000D01*
X144128000Y-111165000D02*
X144128000Y-109371000D01*
X144128000Y-107291000D02*
X144128000Y-105497000D01*
X144088000Y-111143000D02*
X144088000Y-109371000D01*
X144088000Y-107291000D02*
X144088000Y-105519000D01*
X144048000Y-111121000D02*
X144048000Y-109371000D01*
X144048000Y-107291000D02*
X144048000Y-105541000D01*
X144008000Y-111097000D02*
X144008000Y-109371000D01*
X144008000Y-107291000D02*
X144008000Y-105565000D01*
X143968000Y-111073000D02*
X143968000Y-109371000D01*
X143968000Y-107291000D02*
X143968000Y-105589000D01*
X143928000Y-111047000D02*
X143928000Y-109371000D01*
X143928000Y-107291000D02*
X143928000Y-105615000D01*
X143888000Y-111021000D02*
X143888000Y-109371000D01*
X143888000Y-107291000D02*
X143888000Y-105641000D01*
X143848000Y-110995000D02*
X143848000Y-109371000D01*
X143848000Y-107291000D02*
X143848000Y-105667000D01*
X143808000Y-110967000D02*
X143808000Y-109371000D01*
X143808000Y-107291000D02*
X143808000Y-105695000D01*
X143768000Y-110938000D02*
X143768000Y-109371000D01*
X143768000Y-107291000D02*
X143768000Y-105724000D01*
X143728000Y-110909000D02*
X143728000Y-109371000D01*
X143728000Y-107291000D02*
X143728000Y-105753000D01*
X143688000Y-110879000D02*
X143688000Y-109371000D01*
X143688000Y-107291000D02*
X143688000Y-105783000D01*
X143648000Y-110847000D02*
X143648000Y-109371000D01*
X143648000Y-107291000D02*
X143648000Y-105815000D01*
X143608000Y-110815000D02*
X143608000Y-109371000D01*
X143608000Y-107291000D02*
X143608000Y-105847000D01*
X143568000Y-110781000D02*
X143568000Y-109371000D01*
X143568000Y-107291000D02*
X143568000Y-105881000D01*
X143528000Y-110747000D02*
X143528000Y-109371000D01*
X143528000Y-107291000D02*
X143528000Y-105915000D01*
X143488000Y-110711000D02*
X143488000Y-109371000D01*
X143488000Y-107291000D02*
X143488000Y-105951000D01*
X143448000Y-110674000D02*
X143448000Y-109371000D01*
X143448000Y-107291000D02*
X143448000Y-105988000D01*
X143408000Y-110636000D02*
X143408000Y-109371000D01*
X143408000Y-107291000D02*
X143408000Y-106026000D01*
X143368000Y-110596000D02*
X143368000Y-106066000D01*
X143328000Y-110555000D02*
X143328000Y-106107000D01*
X143288000Y-110513000D02*
X143288000Y-106149000D01*
X143248000Y-110468000D02*
X143248000Y-106194000D01*
X143208000Y-110423000D02*
X143208000Y-106239000D01*
X143168000Y-110375000D02*
X143168000Y-106287000D01*
X143128000Y-110326000D02*
X143128000Y-106336000D01*
X143088000Y-110275000D02*
X143088000Y-106387000D01*
X143048000Y-110221000D02*
X143048000Y-106441000D01*
X143008000Y-110165000D02*
X143008000Y-106497000D01*
X142968000Y-110107000D02*
X142968000Y-106555000D01*
X142928000Y-110045000D02*
X142928000Y-106617000D01*
X142888000Y-109981000D02*
X142888000Y-106681000D01*
X142848000Y-109912000D02*
X142848000Y-106750000D01*
X142808000Y-109840000D02*
X142808000Y-106822000D01*
X142768000Y-109763000D02*
X142768000Y-106899000D01*
X142728000Y-109681000D02*
X142728000Y-106981000D01*
X142688000Y-109593000D02*
X142688000Y-107069000D01*
X142648000Y-109496000D02*
X142648000Y-107166000D01*
X142608000Y-109390000D02*
X142608000Y-107272000D01*
X142568000Y-109271000D02*
X142568000Y-107391000D01*
X142528000Y-109133000D02*
X142528000Y-107529000D01*
X142488000Y-108964000D02*
X142488000Y-107698000D01*
X142448000Y-108733000D02*
X142448000Y-107929000D01*
X149189241Y-110170000D02*
X148559241Y-110170000D01*
X148874241Y-110485000D02*
X148874241Y-109855000D01*
X141000241Y-110485000D02*
X141000241Y-109855000D01*
X141315241Y-110170000D02*
X140685241Y-110170000D01*
X134574000Y-108733000D02*
X134574000Y-107929000D01*
X134614000Y-108964000D02*
X134614000Y-107698000D01*
X134654000Y-109133000D02*
X134654000Y-107529000D01*
X134694000Y-109271000D02*
X134694000Y-107391000D01*
X134734000Y-109390000D02*
X134734000Y-107272000D01*
X134774000Y-109496000D02*
X134774000Y-107166000D01*
X134814000Y-109593000D02*
X134814000Y-107069000D01*
X134854000Y-109681000D02*
X134854000Y-106981000D01*
X134894000Y-109763000D02*
X134894000Y-106899000D01*
X134934000Y-109840000D02*
X134934000Y-106822000D01*
X134974000Y-109912000D02*
X134974000Y-106750000D01*
X135014000Y-109981000D02*
X135014000Y-106681000D01*
X135054000Y-110045000D02*
X135054000Y-106617000D01*
X135094000Y-110107000D02*
X135094000Y-106555000D01*
X135134000Y-110165000D02*
X135134000Y-106497000D01*
X135174000Y-110221000D02*
X135174000Y-106441000D01*
X135214000Y-110275000D02*
X135214000Y-106387000D01*
X135254000Y-110326000D02*
X135254000Y-106336000D01*
X135294000Y-110375000D02*
X135294000Y-106287000D01*
X135334000Y-110423000D02*
X135334000Y-106239000D01*
X135374000Y-110468000D02*
X135374000Y-106194000D01*
X135414000Y-110513000D02*
X135414000Y-106149000D01*
X135454000Y-110555000D02*
X135454000Y-106107000D01*
X135494000Y-110596000D02*
X135494000Y-106066000D01*
X135534000Y-107291000D02*
X135534000Y-106026000D01*
X135534000Y-110636000D02*
X135534000Y-109371000D01*
X135574000Y-107291000D02*
X135574000Y-105988000D01*
X135574000Y-110674000D02*
X135574000Y-109371000D01*
X135614000Y-107291000D02*
X135614000Y-105951000D01*
X135614000Y-110711000D02*
X135614000Y-109371000D01*
X135654000Y-107291000D02*
X135654000Y-105915000D01*
X135654000Y-110747000D02*
X135654000Y-109371000D01*
X135694000Y-107291000D02*
X135694000Y-105881000D01*
X135694000Y-110781000D02*
X135694000Y-109371000D01*
X135734000Y-107291000D02*
X135734000Y-105847000D01*
X135734000Y-110815000D02*
X135734000Y-109371000D01*
X135774000Y-107291000D02*
X135774000Y-105815000D01*
X135774000Y-110847000D02*
X135774000Y-109371000D01*
X135814000Y-107291000D02*
X135814000Y-105783000D01*
X135814000Y-110879000D02*
X135814000Y-109371000D01*
X135854000Y-107291000D02*
X135854000Y-105753000D01*
X135854000Y-110909000D02*
X135854000Y-109371000D01*
X135894000Y-107291000D02*
X135894000Y-105724000D01*
X135894000Y-110938000D02*
X135894000Y-109371000D01*
X135934000Y-107291000D02*
X135934000Y-105695000D01*
X135934000Y-110967000D02*
X135934000Y-109371000D01*
X135974000Y-107291000D02*
X135974000Y-105667000D01*
X135974000Y-110995000D02*
X135974000Y-109371000D01*
X136014000Y-107291000D02*
X136014000Y-105641000D01*
X136014000Y-111021000D02*
X136014000Y-109371000D01*
X136054000Y-107291000D02*
X136054000Y-105615000D01*
X136054000Y-111047000D02*
X136054000Y-109371000D01*
X136094000Y-107291000D02*
X136094000Y-105589000D01*
X136094000Y-111073000D02*
X136094000Y-109371000D01*
X136134000Y-107291000D02*
X136134000Y-105565000D01*
X136134000Y-111097000D02*
X136134000Y-109371000D01*
X136174000Y-107291000D02*
X136174000Y-105541000D01*
X136174000Y-111121000D02*
X136174000Y-109371000D01*
X136214000Y-107291000D02*
X136214000Y-105519000D01*
X136214000Y-111143000D02*
X136214000Y-109371000D01*
X136254000Y-107291000D02*
X136254000Y-105497000D01*
X136254000Y-111165000D02*
X136254000Y-109371000D01*
X136294000Y-107291000D02*
X136294000Y-105475000D01*
X136294000Y-111187000D02*
X136294000Y-109371000D01*
X136334000Y-107291000D02*
X136334000Y-105455000D01*
X136334000Y-111207000D02*
X136334000Y-109371000D01*
X136374000Y-107291000D02*
X136374000Y-105435000D01*
X136374000Y-111227000D02*
X136374000Y-109371000D01*
X136414000Y-107291000D02*
X136414000Y-105415000D01*
X136414000Y-111247000D02*
X136414000Y-109371000D01*
X136454000Y-107291000D02*
X136454000Y-105397000D01*
X136454000Y-111265000D02*
X136454000Y-109371000D01*
X136494000Y-107291000D02*
X136494000Y-105379000D01*
X136494000Y-111283000D02*
X136494000Y-109371000D01*
X136534000Y-107291000D02*
X136534000Y-105361000D01*
X136534000Y-111301000D02*
X136534000Y-109371000D01*
X136574000Y-107291000D02*
X136574000Y-105345000D01*
X136574000Y-111317000D02*
X136574000Y-109371000D01*
X136614000Y-107291000D02*
X136614000Y-105329000D01*
X136614000Y-111333000D02*
X136614000Y-109371000D01*
X136654000Y-107291000D02*
X136654000Y-105313000D01*
X136654000Y-111349000D02*
X136654000Y-109371000D01*
X136694000Y-107291000D02*
X136694000Y-105298000D01*
X136694000Y-111364000D02*
X136694000Y-109371000D01*
X136734000Y-107291000D02*
X136734000Y-105284000D01*
X136734000Y-111378000D02*
X136734000Y-109371000D01*
X136774000Y-107291000D02*
X136774000Y-105270000D01*
X136774000Y-111392000D02*
X136774000Y-109371000D01*
X136814000Y-107291000D02*
X136814000Y-105257000D01*
X136814000Y-111405000D02*
X136814000Y-109371000D01*
X136854000Y-107291000D02*
X136854000Y-105245000D01*
X136854000Y-111417000D02*
X136854000Y-109371000D01*
X136894000Y-107291000D02*
X136894000Y-105233000D01*
X136894000Y-111429000D02*
X136894000Y-109371000D01*
X136934000Y-107291000D02*
X136934000Y-105221000D01*
X136934000Y-111441000D02*
X136934000Y-109371000D01*
X136974000Y-107291000D02*
X136974000Y-105210000D01*
X136974000Y-111452000D02*
X136974000Y-109371000D01*
X137014000Y-107291000D02*
X137014000Y-105200000D01*
X137014000Y-111462000D02*
X137014000Y-109371000D01*
X137054000Y-107291000D02*
X137054000Y-105190000D01*
X137054000Y-111472000D02*
X137054000Y-109371000D01*
X137094000Y-107291000D02*
X137094000Y-105181000D01*
X137094000Y-111481000D02*
X137094000Y-109371000D01*
X137135000Y-107291000D02*
X137135000Y-105172000D01*
X137135000Y-111490000D02*
X137135000Y-109371000D01*
X137175000Y-107291000D02*
X137175000Y-105164000D01*
X137175000Y-111498000D02*
X137175000Y-109371000D01*
X137215000Y-107291000D02*
X137215000Y-105156000D01*
X137215000Y-111506000D02*
X137215000Y-109371000D01*
X137255000Y-107291000D02*
X137255000Y-105149000D01*
X137255000Y-111513000D02*
X137255000Y-109371000D01*
X137295000Y-107291000D02*
X137295000Y-105142000D01*
X137295000Y-111520000D02*
X137295000Y-109371000D01*
X137335000Y-107291000D02*
X137335000Y-105136000D01*
X137335000Y-111526000D02*
X137335000Y-109371000D01*
X137375000Y-107291000D02*
X137375000Y-105130000D01*
X137375000Y-111532000D02*
X137375000Y-109371000D01*
X137415000Y-107291000D02*
X137415000Y-105125000D01*
X137415000Y-111537000D02*
X137415000Y-109371000D01*
X137455000Y-107291000D02*
X137455000Y-105120000D01*
X137455000Y-111542000D02*
X137455000Y-109371000D01*
X137495000Y-107291000D02*
X137495000Y-105116000D01*
X137495000Y-111546000D02*
X137495000Y-109371000D01*
X137535000Y-107291000D02*
X137535000Y-105113000D01*
X137535000Y-111549000D02*
X137535000Y-109371000D01*
X137575000Y-107291000D02*
X137575000Y-105109000D01*
X137575000Y-111553000D02*
X137575000Y-109371000D01*
X137615000Y-111555000D02*
X137615000Y-105107000D01*
X137655000Y-111558000D02*
X137655000Y-105104000D01*
X137695000Y-111559000D02*
X137695000Y-105103000D01*
X137735000Y-111561000D02*
X137735000Y-105101000D01*
X137775000Y-111561000D02*
X137775000Y-105101000D01*
X137815000Y-111561000D02*
X137815000Y-105101000D01*
X141085000Y-108331000D02*
G75*
G03X141085000Y-108331000I-3270000J0D01*
G01*
X137869000Y-81588000D02*
X137869000Y-84528000D01*
X137869000Y-84528000D02*
X143309000Y-84528000D01*
X143309000Y-84528000D02*
X143309000Y-81588000D01*
X143309000Y-81588000D02*
X137869000Y-81588000D01*
X136849000Y-83058000D02*
X137869000Y-83058000D01*
X144329000Y-83058000D02*
X143309000Y-83058000D01*
X138769000Y-81588000D02*
X138769000Y-84528000D01*
X138889000Y-81588000D02*
X138889000Y-84528000D01*
X138649000Y-81588000D02*
X138649000Y-84528000D01*
X142529000Y-89946666D02*
X142529000Y-87006666D01*
X142289000Y-89946666D02*
X142289000Y-87006666D01*
X142409000Y-89946666D02*
X142409000Y-87006666D01*
X136849000Y-88476666D02*
X137869000Y-88476666D01*
X144329000Y-88476666D02*
X143309000Y-88476666D01*
X137869000Y-89946666D02*
X143309000Y-89946666D01*
X137869000Y-87006666D02*
X137869000Y-89946666D01*
X143309000Y-87006666D02*
X137869000Y-87006666D01*
X143309000Y-89946666D02*
X143309000Y-87006666D01*
X138649000Y-97844000D02*
X138649000Y-100784000D01*
X138889000Y-97844000D02*
X138889000Y-100784000D01*
X138769000Y-97844000D02*
X138769000Y-100784000D01*
X144329000Y-99314000D02*
X143309000Y-99314000D01*
X136849000Y-99314000D02*
X137869000Y-99314000D01*
X143309000Y-97844000D02*
X137869000Y-97844000D01*
X143309000Y-100784000D02*
X143309000Y-97844000D01*
X137869000Y-100784000D02*
X143309000Y-100784000D01*
X137869000Y-97844000D02*
X137869000Y-100784000D01*
X143309000Y-95365332D02*
X143309000Y-92425332D01*
X143309000Y-92425332D02*
X137869000Y-92425332D01*
X137869000Y-92425332D02*
X137869000Y-95365332D01*
X137869000Y-95365332D02*
X143309000Y-95365332D01*
X144329000Y-93895332D02*
X143309000Y-93895332D01*
X136849000Y-93895332D02*
X137869000Y-93895332D01*
X142409000Y-95365332D02*
X142409000Y-92425332D01*
X142289000Y-95365332D02*
X142289000Y-92425332D01*
X142529000Y-95365332D02*
X142529000Y-92425332D01*
X148293000Y-68259000D02*
X148293000Y-67209000D01*
X147243000Y-67209000D02*
X148293000Y-67209000D01*
X142193000Y-76609000D02*
X133393000Y-76609000D01*
X133393000Y-76609000D02*
X133393000Y-67409000D01*
X148093000Y-73909000D02*
X148093000Y-76609000D01*
X148093000Y-76609000D02*
X146193000Y-76609000D01*
X133393000Y-67409000D02*
X148093000Y-67409000D01*
X148093000Y-67409000D02*
X148093000Y-70009000D01*
X156718000Y-68580000D02*
X157988000Y-68580000D01*
X156718000Y-69850000D02*
X156718000Y-68580000D01*
X159030929Y-72770000D02*
X159485071Y-72770000D01*
X159030929Y-72010000D02*
X159485071Y-72010000D01*
X161570929Y-72770000D02*
X161968000Y-72770000D01*
X161570929Y-72010000D02*
X161968000Y-72010000D01*
X170628000Y-72770000D02*
X164628000Y-72770000D01*
X170628000Y-72010000D02*
X170628000Y-72770000D01*
X164628000Y-72010000D02*
X170628000Y-72010000D01*
X161968000Y-71120000D02*
X164628000Y-71120000D01*
X159098000Y-70230000D02*
X159485071Y-70230000D01*
X159098000Y-69470000D02*
X159485071Y-69470000D01*
X161570929Y-70230000D02*
X161968000Y-70230000D01*
X161570929Y-69470000D02*
X161968000Y-69470000D01*
X164628000Y-70130000D02*
X170628000Y-70130000D01*
X164628000Y-70010000D02*
X170628000Y-70010000D01*
X164628000Y-69890000D02*
X170628000Y-69890000D01*
X164628000Y-69770000D02*
X170628000Y-69770000D01*
X164628000Y-69650000D02*
X170628000Y-69650000D01*
X164628000Y-69530000D02*
X170628000Y-69530000D01*
X170628000Y-70230000D02*
X164628000Y-70230000D01*
X170628000Y-69470000D02*
X170628000Y-70230000D01*
X164628000Y-69470000D02*
X170628000Y-69470000D01*
X164628000Y-68520000D02*
X161968000Y-68520000D01*
X164628000Y-73720000D02*
X164628000Y-68520000D01*
X161968000Y-73720000D02*
X164628000Y-73720000D01*
X161968000Y-68520000D02*
X161968000Y-73720000D01*
X161968000Y-116780000D02*
X161968000Y-121980000D01*
X161968000Y-121980000D02*
X164628000Y-121980000D01*
X164628000Y-121980000D02*
X164628000Y-116780000D01*
X164628000Y-116780000D02*
X161968000Y-116780000D01*
X164628000Y-117730000D02*
X170628000Y-117730000D01*
X170628000Y-117730000D02*
X170628000Y-118490000D01*
X170628000Y-118490000D02*
X164628000Y-118490000D01*
X164628000Y-117790000D02*
X170628000Y-117790000D01*
X164628000Y-117910000D02*
X170628000Y-117910000D01*
X164628000Y-118030000D02*
X170628000Y-118030000D01*
X164628000Y-118150000D02*
X170628000Y-118150000D01*
X164628000Y-118270000D02*
X170628000Y-118270000D01*
X164628000Y-118390000D02*
X170628000Y-118390000D01*
X161570929Y-117730000D02*
X161968000Y-117730000D01*
X161570929Y-118490000D02*
X161968000Y-118490000D01*
X159098000Y-117730000D02*
X159485071Y-117730000D01*
X159098000Y-118490000D02*
X159485071Y-118490000D01*
X161968000Y-119380000D02*
X164628000Y-119380000D01*
X164628000Y-120270000D02*
X170628000Y-120270000D01*
X170628000Y-120270000D02*
X170628000Y-121030000D01*
X170628000Y-121030000D02*
X164628000Y-121030000D01*
X161570929Y-120270000D02*
X161968000Y-120270000D01*
X161570929Y-121030000D02*
X161968000Y-121030000D01*
X159030929Y-120270000D02*
X159485071Y-120270000D01*
X159030929Y-121030000D02*
X159485071Y-121030000D01*
X156718000Y-118110000D02*
X156718000Y-116840000D01*
X156718000Y-116840000D02*
X157988000Y-116840000D01*
X146471000Y-119475000D02*
X136231000Y-119475000D01*
X146471000Y-114834000D02*
X136231000Y-114834000D01*
X146471000Y-119475000D02*
X146471000Y-114834000D01*
X136231000Y-119475000D02*
X136231000Y-114834000D01*
X146471000Y-117965000D02*
X136231000Y-117965000D01*
X143201000Y-119475000D02*
X143201000Y-117965000D01*
X139500000Y-119475000D02*
X139500000Y-117965000D01*
D13*
X151778000Y-101868500D02*
X151778000Y-101368500D01*
X151778000Y-101868500D02*
X152278000Y-101868500D01*
X151778000Y-89968500D02*
X151778000Y-90468500D01*
X151778000Y-89968500D02*
X152278000Y-89968500D01*
X155978000Y-89968500D02*
X155978000Y-90468500D01*
X155978000Y-89968500D02*
X155478000Y-89968500D01*
X155978000Y-101868500D02*
X155478000Y-101868500D01*
X155978000Y-101868500D02*
X155978000Y-101368500D01*
D12*
X155468000Y-107844000D02*
X155468000Y-104754000D01*
X155408000Y-106299000D02*
G75*
G03X155408000Y-106299000I-2500000J0D01*
G01*
X149918000Y-106299462D02*
G75*
G02X155468000Y-104754170I2990000J462D01*
G01*
X149918000Y-106298538D02*
G75*
G03X155468000Y-107843830I2990000J-462D01*
G01*
X149918000Y-85597538D02*
G75*
G03X155468000Y-87142830I2990000J-462D01*
G01*
X149918000Y-85598462D02*
G75*
G02X155468000Y-84053170I2990000J462D01*
G01*
X155408000Y-85598000D02*
G75*
G03X155408000Y-85598000I-2500000J0D01*
G01*
X155468000Y-87143000D02*
X155468000Y-84053000D01*
X150495000Y-120499000D02*
X150495000Y-119729000D01*
X150495000Y-112419000D02*
X150495000Y-113189000D01*
X151865000Y-119729000D02*
X151865000Y-113189000D01*
X149125000Y-119729000D02*
X151865000Y-119729000D01*
X149125000Y-113189000D02*
X149125000Y-119729000D01*
X151865000Y-113189000D02*
X149125000Y-113189000D01*
X150268000Y-79089000D02*
X153008000Y-79089000D01*
X153008000Y-79089000D02*
X153008000Y-72549000D01*
X153008000Y-72549000D02*
X150268000Y-72549000D01*
X150268000Y-72549000D02*
X150268000Y-79089000D01*
X151638000Y-79859000D02*
X151638000Y-79089000D01*
X151638000Y-71779000D02*
X151638000Y-72549000D01*
D14*
X145522333Y-113088142D02*
X145474714Y-113135761D01*
X145331857Y-113183380D01*
X145236619Y-113183380D01*
X145093761Y-113135761D01*
X144998523Y-113040523D01*
X144950904Y-112945285D01*
X144903285Y-112754809D01*
X144903285Y-112611952D01*
X144950904Y-112421476D01*
X144998523Y-112326238D01*
X145093761Y-112231000D01*
X145236619Y-112183380D01*
X145331857Y-112183380D01*
X145474714Y-112231000D01*
X145522333Y-112278619D01*
X146474714Y-113183380D02*
X145903285Y-113183380D01*
X146189000Y-113183380D02*
X146189000Y-112183380D01*
X146093761Y-112326238D01*
X145998523Y-112421476D01*
X145903285Y-112469095D01*
X141501952Y-104719380D02*
X140930523Y-104719380D01*
X141216238Y-104719380D02*
X141216238Y-103719380D01*
X141121000Y-103862238D01*
X141025761Y-103957476D01*
X140930523Y-104005095D01*
X142121000Y-103719380D02*
X142216238Y-103719380D01*
X142311476Y-103767000D01*
X142359095Y-103814619D01*
X142406714Y-103909857D01*
X142454333Y-104100333D01*
X142454333Y-104338428D01*
X142406714Y-104528904D01*
X142359095Y-104624142D01*
X142311476Y-104671761D01*
X142216238Y-104719380D01*
X142121000Y-104719380D01*
X142025761Y-104671761D01*
X141978142Y-104624142D01*
X141930523Y-104528904D01*
X141882904Y-104338428D01*
X141882904Y-104100333D01*
X141930523Y-103909857D01*
X141978142Y-103814619D01*
X142025761Y-103767000D01*
X142121000Y-103719380D01*
X143073380Y-103719380D02*
X143168619Y-103719380D01*
X143263857Y-103767000D01*
X143311476Y-103814619D01*
X143359095Y-103909857D01*
X143406714Y-104100333D01*
X143406714Y-104338428D01*
X143359095Y-104528904D01*
X143311476Y-104624142D01*
X143263857Y-104671761D01*
X143168619Y-104719380D01*
X143073380Y-104719380D01*
X142978142Y-104671761D01*
X142930523Y-104624142D01*
X142882904Y-104528904D01*
X142835285Y-104338428D01*
X142835285Y-104100333D01*
X142882904Y-103909857D01*
X142930523Y-103814619D01*
X142978142Y-103767000D01*
X143073380Y-103719380D01*
X144263857Y-104052714D02*
X144263857Y-104719380D01*
X143835285Y-104052714D02*
X143835285Y-104576523D01*
X143882904Y-104671761D01*
X143978142Y-104719380D01*
X144121000Y-104719380D01*
X144216238Y-104671761D01*
X144263857Y-104624142D01*
X137755333Y-113514142D02*
X137707714Y-113561761D01*
X137564857Y-113609380D01*
X137469619Y-113609380D01*
X137326761Y-113561761D01*
X137231523Y-113466523D01*
X137183904Y-113371285D01*
X137136285Y-113180809D01*
X137136285Y-113037952D01*
X137183904Y-112847476D01*
X137231523Y-112752238D01*
X137326761Y-112657000D01*
X137469619Y-112609380D01*
X137564857Y-112609380D01*
X137707714Y-112657000D01*
X137755333Y-112704619D01*
X138136285Y-112704619D02*
X138183904Y-112657000D01*
X138279142Y-112609380D01*
X138517238Y-112609380D01*
X138612476Y-112657000D01*
X138660095Y-112704619D01*
X138707714Y-112799857D01*
X138707714Y-112895095D01*
X138660095Y-113037952D01*
X138088666Y-113609380D01*
X138707714Y-113609380D01*
X135056714Y-104052714D02*
X135056714Y-104719380D01*
X134818619Y-103671761D02*
X134580523Y-104386047D01*
X135199571Y-104386047D01*
X135485285Y-103719380D02*
X136151952Y-103719380D01*
X135723380Y-104719380D01*
X136723380Y-103719380D02*
X136818619Y-103719380D01*
X136913857Y-103767000D01*
X136961476Y-103814619D01*
X137009095Y-103909857D01*
X137056714Y-104100333D01*
X137056714Y-104338428D01*
X137009095Y-104528904D01*
X136961476Y-104624142D01*
X136913857Y-104671761D01*
X136818619Y-104719380D01*
X136723380Y-104719380D01*
X136628142Y-104671761D01*
X136580523Y-104624142D01*
X136532904Y-104528904D01*
X136485285Y-104338428D01*
X136485285Y-104100333D01*
X136532904Y-103909857D01*
X136580523Y-103814619D01*
X136628142Y-103767000D01*
X136723380Y-103719380D01*
X137913857Y-104052714D02*
X137913857Y-104719380D01*
X137485285Y-104052714D02*
X137485285Y-104576523D01*
X137532904Y-104671761D01*
X137628142Y-104719380D01*
X137771000Y-104719380D01*
X137866238Y-104671761D01*
X137913857Y-104624142D01*
X137818904Y-81097380D02*
X137818904Y-80097380D01*
X138057000Y-80097380D01*
X138199857Y-80145000D01*
X138295095Y-80240238D01*
X138342714Y-80335476D01*
X138390333Y-80525952D01*
X138390333Y-80668809D01*
X138342714Y-80859285D01*
X138295095Y-80954523D01*
X138199857Y-81049761D01*
X138057000Y-81097380D01*
X137818904Y-81097380D01*
X139342714Y-81097380D02*
X138771285Y-81097380D01*
X139057000Y-81097380D02*
X139057000Y-80097380D01*
X138961761Y-80240238D01*
X138866523Y-80335476D01*
X138771285Y-80383095D01*
X137945904Y-86431380D02*
X137945904Y-85431380D01*
X138184000Y-85431380D01*
X138326857Y-85479000D01*
X138422095Y-85574238D01*
X138469714Y-85669476D01*
X138517333Y-85859952D01*
X138517333Y-86002809D01*
X138469714Y-86193285D01*
X138422095Y-86288523D01*
X138326857Y-86383761D01*
X138184000Y-86431380D01*
X137945904Y-86431380D01*
X138898285Y-85526619D02*
X138945904Y-85479000D01*
X139041142Y-85431380D01*
X139279238Y-85431380D01*
X139374476Y-85479000D01*
X139422095Y-85526619D01*
X139469714Y-85621857D01*
X139469714Y-85717095D01*
X139422095Y-85859952D01*
X138850666Y-86431380D01*
X139469714Y-86431380D01*
X138072904Y-97480380D02*
X138072904Y-96480380D01*
X138311000Y-96480380D01*
X138453857Y-96528000D01*
X138549095Y-96623238D01*
X138596714Y-96718476D01*
X138644333Y-96908952D01*
X138644333Y-97051809D01*
X138596714Y-97242285D01*
X138549095Y-97337523D01*
X138453857Y-97432761D01*
X138311000Y-97480380D01*
X138072904Y-97480380D01*
X138977666Y-96480380D02*
X139596714Y-96480380D01*
X139263380Y-96861333D01*
X139406238Y-96861333D01*
X139501476Y-96908952D01*
X139549095Y-96956571D01*
X139596714Y-97051809D01*
X139596714Y-97289904D01*
X139549095Y-97385142D01*
X139501476Y-97432761D01*
X139406238Y-97480380D01*
X139120523Y-97480380D01*
X139025285Y-97432761D01*
X138977666Y-97385142D01*
X137945904Y-92019380D02*
X137945904Y-91019380D01*
X138184000Y-91019380D01*
X138326857Y-91067000D01*
X138422095Y-91162238D01*
X138469714Y-91257476D01*
X138517333Y-91447952D01*
X138517333Y-91590809D01*
X138469714Y-91781285D01*
X138422095Y-91876523D01*
X138326857Y-91971761D01*
X138184000Y-92019380D01*
X137945904Y-92019380D01*
X139374476Y-91352714D02*
X139374476Y-92019380D01*
X139136380Y-90971761D02*
X138898285Y-91686047D01*
X139517333Y-91686047D01*
X138409666Y-77211380D02*
X138409666Y-77925666D01*
X138362047Y-78068523D01*
X138266809Y-78163761D01*
X138123952Y-78211380D01*
X138028714Y-78211380D01*
X139409666Y-78211380D02*
X138838238Y-78211380D01*
X139123952Y-78211380D02*
X139123952Y-77211380D01*
X139028714Y-77354238D01*
X138933476Y-77449476D01*
X138838238Y-77497095D01*
X154733666Y-70445380D02*
X154733666Y-71159666D01*
X154686047Y-71302523D01*
X154590809Y-71397761D01*
X154447952Y-71445380D01*
X154352714Y-71445380D01*
X155162238Y-70540619D02*
X155209857Y-70493000D01*
X155305095Y-70445380D01*
X155543190Y-70445380D01*
X155638428Y-70493000D01*
X155686047Y-70540619D01*
X155733666Y-70635857D01*
X155733666Y-70731095D01*
X155686047Y-70873952D01*
X155114619Y-71445380D01*
X155733666Y-71445380D01*
X154225666Y-118832380D02*
X154225666Y-119546666D01*
X154178047Y-119689523D01*
X154082809Y-119784761D01*
X153939952Y-119832380D01*
X153844714Y-119832380D01*
X154606619Y-118832380D02*
X155225666Y-118832380D01*
X154892333Y-119213333D01*
X155035190Y-119213333D01*
X155130428Y-119260952D01*
X155178047Y-119308571D01*
X155225666Y-119403809D01*
X155225666Y-119641904D01*
X155178047Y-119737142D01*
X155130428Y-119784761D01*
X155035190Y-119832380D01*
X154749476Y-119832380D01*
X154654238Y-119784761D01*
X154606619Y-119737142D01*
X140589095Y-121118380D02*
X140589095Y-121927904D01*
X140636714Y-122023142D01*
X140684333Y-122070761D01*
X140779571Y-122118380D01*
X140970047Y-122118380D01*
X141065285Y-122070761D01*
X141112904Y-122023142D01*
X141160523Y-121927904D01*
X141160523Y-121118380D01*
X142160523Y-122118380D02*
X141589095Y-122118380D01*
X141874809Y-122118380D02*
X141874809Y-121118380D01*
X141779571Y-121261238D01*
X141684333Y-121356476D01*
X141589095Y-121404095D01*
X151280761Y-97027904D02*
X151328380Y-96885047D01*
X151328380Y-96646952D01*
X151280761Y-96551714D01*
X151233142Y-96504095D01*
X151137904Y-96456476D01*
X151042666Y-96456476D01*
X150947428Y-96504095D01*
X150899809Y-96551714D01*
X150852190Y-96646952D01*
X150804571Y-96837428D01*
X150756952Y-96932666D01*
X150709333Y-96980285D01*
X150614095Y-97027904D01*
X150518857Y-97027904D01*
X150423619Y-96980285D01*
X150376000Y-96932666D01*
X150328380Y-96837428D01*
X150328380Y-96599333D01*
X150376000Y-96456476D01*
X151328380Y-95504095D02*
X151328380Y-96075523D01*
X151328380Y-95789809D02*
X150328380Y-95789809D01*
X150471238Y-95885047D01*
X150566476Y-95980285D01*
X150614095Y-96075523D01*
X149296380Y-104751095D02*
X148296380Y-104751095D01*
X148296380Y-104513000D01*
X148344000Y-104370142D01*
X148439238Y-104274904D01*
X148534476Y-104227285D01*
X148724952Y-104179666D01*
X148867809Y-104179666D01*
X149058285Y-104227285D01*
X149153523Y-104274904D01*
X149248761Y-104370142D01*
X149296380Y-104513000D01*
X149296380Y-104751095D01*
X148296380Y-103274904D02*
X148296380Y-103751095D01*
X148772571Y-103798714D01*
X148724952Y-103751095D01*
X148677333Y-103655857D01*
X148677333Y-103417761D01*
X148724952Y-103322523D01*
X148772571Y-103274904D01*
X148867809Y-103227285D01*
X149105904Y-103227285D01*
X149201142Y-103274904D01*
X149248761Y-103322523D01*
X149296380Y-103417761D01*
X149296380Y-103655857D01*
X149248761Y-103751095D01*
X149201142Y-103798714D01*
X149169380Y-86209095D02*
X148169380Y-86209095D01*
X148169380Y-85971000D01*
X148217000Y-85828142D01*
X148312238Y-85732904D01*
X148407476Y-85685285D01*
X148597952Y-85637666D01*
X148740809Y-85637666D01*
X148931285Y-85685285D01*
X149026523Y-85732904D01*
X149121761Y-85828142D01*
X149169380Y-85971000D01*
X149169380Y-86209095D01*
X148169380Y-84780523D02*
X148169380Y-84971000D01*
X148217000Y-85066238D01*
X148264619Y-85113857D01*
X148407476Y-85209095D01*
X148597952Y-85256714D01*
X148978904Y-85256714D01*
X149074142Y-85209095D01*
X149121761Y-85161476D01*
X149169380Y-85066238D01*
X149169380Y-84875761D01*
X149121761Y-84780523D01*
X149074142Y-84732904D01*
X148978904Y-84685285D01*
X148740809Y-84685285D01*
X148645571Y-84732904D01*
X148597952Y-84780523D01*
X148550333Y-84875761D01*
X148550333Y-85066238D01*
X148597952Y-85161476D01*
X148645571Y-85209095D01*
X148740809Y-85256714D01*
X153317380Y-116625666D02*
X152841190Y-116959000D01*
X153317380Y-117197095D02*
X152317380Y-117197095D01*
X152317380Y-116816142D01*
X152365000Y-116720904D01*
X152412619Y-116673285D01*
X152507857Y-116625666D01*
X152650714Y-116625666D01*
X152745952Y-116673285D01*
X152793571Y-116720904D01*
X152841190Y-116816142D01*
X152841190Y-117197095D01*
X153317380Y-115673285D02*
X153317380Y-116244714D01*
X153317380Y-115959000D02*
X152317380Y-115959000D01*
X152460238Y-116054238D01*
X152555476Y-116149476D01*
X152603095Y-116244714D01*
X149720380Y-75985666D02*
X149244190Y-76319000D01*
X149720380Y-76557095D02*
X148720380Y-76557095D01*
X148720380Y-76176142D01*
X148768000Y-76080904D01*
X148815619Y-76033285D01*
X148910857Y-75985666D01*
X149053714Y-75985666D01*
X149148952Y-76033285D01*
X149196571Y-76080904D01*
X149244190Y-76176142D01*
X149244190Y-76557095D01*
X148815619Y-75604714D02*
X148768000Y-75557095D01*
X148720380Y-75461857D01*
X148720380Y-75223761D01*
X148768000Y-75128523D01*
X148815619Y-75080904D01*
X148910857Y-75033285D01*
X149006095Y-75033285D01*
X149148952Y-75080904D01*
X149720380Y-75652333D01*
X149720380Y-75033285D01*
M02*
