G04 #@! TF.GenerationSoftware,KiCad,Pcbnew,(5.1.4)-1*
G04 #@! TF.CreationDate,2019-11-08T15:33:28+07:00*
G04 #@! TF.ProjectId,PowerForBreadboard,506f7765-7246-46f7-9242-72656164626f,rev?*
G04 #@! TF.SameCoordinates,Original*
G04 #@! TF.FileFunction,Soldermask,Bot*
G04 #@! TF.FilePolarity,Negative*
%FSLAX46Y46*%
G04 Gerber Fmt 4.6, Leading zero omitted, Abs format (unit mm)*
G04 Created by KiCad (PCBNEW (5.1.4)-1) date 2019-11-08 15:33:28*
%MOMM*%
%LPD*%
G04 APERTURE LIST*
%ADD10C,0.100000*%
G04 APERTURE END LIST*
D10*
G36*
X150661823Y-120700313D02*
G01*
X150822242Y-120748976D01*
X150954906Y-120819886D01*
X150970078Y-120827996D01*
X151099659Y-120934341D01*
X151206004Y-121063922D01*
X151206005Y-121063924D01*
X151285024Y-121211758D01*
X151333687Y-121372177D01*
X151350117Y-121539000D01*
X151333687Y-121705823D01*
X151285024Y-121866242D01*
X151214114Y-121998906D01*
X151206004Y-122014078D01*
X151099659Y-122143659D01*
X150970078Y-122250004D01*
X150970076Y-122250005D01*
X150822242Y-122329024D01*
X150661823Y-122377687D01*
X150536804Y-122390000D01*
X150453196Y-122390000D01*
X150328177Y-122377687D01*
X150167758Y-122329024D01*
X150019924Y-122250005D01*
X150019922Y-122250004D01*
X149890341Y-122143659D01*
X149783996Y-122014078D01*
X149775886Y-121998906D01*
X149704976Y-121866242D01*
X149656313Y-121705823D01*
X149639883Y-121539000D01*
X149656313Y-121372177D01*
X149704976Y-121211758D01*
X149783995Y-121063924D01*
X149783996Y-121063922D01*
X149890341Y-120934341D01*
X150019922Y-120827996D01*
X150035094Y-120819886D01*
X150167758Y-120748976D01*
X150328177Y-120700313D01*
X150453196Y-120688000D01*
X150536804Y-120688000D01*
X150661823Y-120700313D01*
X150661823Y-120700313D01*
G37*
G36*
X160638442Y-119755518D02*
G01*
X160704627Y-119762037D01*
X160874466Y-119813557D01*
X161030991Y-119897222D01*
X161066729Y-119926552D01*
X161168186Y-120009814D01*
X161251448Y-120111271D01*
X161280778Y-120147009D01*
X161364443Y-120303534D01*
X161415963Y-120473373D01*
X161433359Y-120650000D01*
X161415963Y-120826627D01*
X161364443Y-120996466D01*
X161280778Y-121152991D01*
X161251448Y-121188729D01*
X161168186Y-121290186D01*
X161068281Y-121372175D01*
X161030991Y-121402778D01*
X160874466Y-121486443D01*
X160704627Y-121537963D01*
X160638443Y-121544481D01*
X160572260Y-121551000D01*
X160483740Y-121551000D01*
X160417557Y-121544481D01*
X160351373Y-121537963D01*
X160181534Y-121486443D01*
X160025009Y-121402778D01*
X159987719Y-121372175D01*
X159887814Y-121290186D01*
X159804552Y-121188729D01*
X159775222Y-121152991D01*
X159691557Y-120996466D01*
X159640037Y-120826627D01*
X159622641Y-120650000D01*
X159640037Y-120473373D01*
X159691557Y-120303534D01*
X159775222Y-120147009D01*
X159804552Y-120111271D01*
X159887814Y-120009814D01*
X159989271Y-119926552D01*
X160025009Y-119897222D01*
X160181534Y-119813557D01*
X160351373Y-119762037D01*
X160417558Y-119755518D01*
X160483740Y-119749000D01*
X160572260Y-119749000D01*
X160638442Y-119755518D01*
X160638442Y-119755518D01*
G37*
G36*
X158098442Y-119755518D02*
G01*
X158164627Y-119762037D01*
X158334466Y-119813557D01*
X158490991Y-119897222D01*
X158526729Y-119926552D01*
X158628186Y-120009814D01*
X158711448Y-120111271D01*
X158740778Y-120147009D01*
X158824443Y-120303534D01*
X158875963Y-120473373D01*
X158893359Y-120650000D01*
X158875963Y-120826627D01*
X158824443Y-120996466D01*
X158740778Y-121152991D01*
X158711448Y-121188729D01*
X158628186Y-121290186D01*
X158528281Y-121372175D01*
X158490991Y-121402778D01*
X158334466Y-121486443D01*
X158164627Y-121537963D01*
X158098443Y-121544481D01*
X158032260Y-121551000D01*
X157943740Y-121551000D01*
X157877557Y-121544481D01*
X157811373Y-121537963D01*
X157641534Y-121486443D01*
X157485009Y-121402778D01*
X157447719Y-121372175D01*
X157347814Y-121290186D01*
X157264552Y-121188729D01*
X157235222Y-121152991D01*
X157151557Y-120996466D01*
X157100037Y-120826627D01*
X157082641Y-120650000D01*
X157100037Y-120473373D01*
X157151557Y-120303534D01*
X157235222Y-120147009D01*
X157264552Y-120111271D01*
X157347814Y-120009814D01*
X157449271Y-119926552D01*
X157485009Y-119897222D01*
X157641534Y-119813557D01*
X157811373Y-119762037D01*
X157877558Y-119755518D01*
X157943740Y-119749000D01*
X158032260Y-119749000D01*
X158098442Y-119755518D01*
X158098442Y-119755518D01*
G37*
G36*
X158889000Y-119011000D02*
G01*
X157087000Y-119011000D01*
X157087000Y-117209000D01*
X158889000Y-117209000D01*
X158889000Y-119011000D01*
X158889000Y-119011000D01*
G37*
G36*
X160638443Y-117215519D02*
G01*
X160704627Y-117222037D01*
X160874466Y-117273557D01*
X161030991Y-117357222D01*
X161066729Y-117386552D01*
X161168186Y-117469814D01*
X161251448Y-117571271D01*
X161280778Y-117607009D01*
X161364443Y-117763534D01*
X161415963Y-117933373D01*
X161433359Y-118110000D01*
X161415963Y-118286627D01*
X161364443Y-118456466D01*
X161280778Y-118612991D01*
X161251448Y-118648729D01*
X161168186Y-118750186D01*
X161066729Y-118833448D01*
X161030991Y-118862778D01*
X160874466Y-118946443D01*
X160704627Y-118997963D01*
X160638443Y-119004481D01*
X160572260Y-119011000D01*
X160483740Y-119011000D01*
X160417557Y-119004481D01*
X160351373Y-118997963D01*
X160181534Y-118946443D01*
X160025009Y-118862778D01*
X159989271Y-118833448D01*
X159887814Y-118750186D01*
X159804552Y-118648729D01*
X159775222Y-118612991D01*
X159691557Y-118456466D01*
X159640037Y-118286627D01*
X159622641Y-118110000D01*
X159640037Y-117933373D01*
X159691557Y-117763534D01*
X159775222Y-117607009D01*
X159804552Y-117571271D01*
X159887814Y-117469814D01*
X159989271Y-117386552D01*
X160025009Y-117357222D01*
X160181534Y-117273557D01*
X160351373Y-117222037D01*
X160417557Y-117215519D01*
X160483740Y-117209000D01*
X160572260Y-117209000D01*
X160638443Y-117215519D01*
X160638443Y-117215519D01*
G37*
G36*
X141547720Y-115168520D02*
G01*
X141736881Y-115225901D01*
X141911212Y-115319083D01*
X142064015Y-115444485D01*
X142189417Y-115597288D01*
X142233182Y-115679167D01*
X142282598Y-115771617D01*
X142282599Y-115771620D01*
X142339980Y-115960781D01*
X142354500Y-116108207D01*
X142354500Y-116301794D01*
X142339980Y-116449220D01*
X142282599Y-116638381D01*
X142189417Y-116812712D01*
X142064015Y-116965515D01*
X141911212Y-117090917D01*
X141829333Y-117134682D01*
X141736883Y-117184098D01*
X141736880Y-117184099D01*
X141547719Y-117241480D01*
X141351000Y-117260855D01*
X141154280Y-117241480D01*
X140965119Y-117184099D01*
X140790788Y-117090917D01*
X140637985Y-116965515D01*
X140512583Y-116812712D01*
X140468818Y-116730833D01*
X140419402Y-116638383D01*
X140419401Y-116638380D01*
X140362020Y-116449219D01*
X140347500Y-116301793D01*
X140347500Y-116108206D01*
X140362020Y-115960780D01*
X140419401Y-115771619D01*
X140512583Y-115597288D01*
X140637985Y-115444485D01*
X140790788Y-115319083D01*
X140965120Y-115225901D01*
X141154281Y-115168520D01*
X141351000Y-115149145D01*
X141547720Y-115168520D01*
X141547720Y-115168520D01*
G37*
G36*
X139007720Y-115168520D02*
G01*
X139196881Y-115225901D01*
X139371212Y-115319083D01*
X139524015Y-115444485D01*
X139649417Y-115597288D01*
X139693182Y-115679167D01*
X139742598Y-115771617D01*
X139742599Y-115771620D01*
X139799980Y-115960781D01*
X139814500Y-116108207D01*
X139814500Y-116301794D01*
X139799980Y-116449220D01*
X139742599Y-116638381D01*
X139649417Y-116812712D01*
X139524015Y-116965515D01*
X139371212Y-117090917D01*
X139289333Y-117134682D01*
X139196883Y-117184098D01*
X139196880Y-117184099D01*
X139007719Y-117241480D01*
X138811000Y-117260855D01*
X138614280Y-117241480D01*
X138425119Y-117184099D01*
X138250788Y-117090917D01*
X138097985Y-116965515D01*
X137972583Y-116812712D01*
X137928818Y-116730833D01*
X137879402Y-116638383D01*
X137879401Y-116638380D01*
X137822020Y-116449219D01*
X137807500Y-116301793D01*
X137807500Y-116108206D01*
X137822020Y-115960780D01*
X137879401Y-115771619D01*
X137972583Y-115597288D01*
X138097985Y-115444485D01*
X138250788Y-115319083D01*
X138425120Y-115225901D01*
X138614281Y-115168520D01*
X138811000Y-115149145D01*
X139007720Y-115168520D01*
X139007720Y-115168520D01*
G37*
G36*
X144894500Y-117256000D02*
G01*
X142887500Y-117256000D01*
X142887500Y-115154000D01*
X144894500Y-115154000D01*
X144894500Y-117256000D01*
X144894500Y-117256000D01*
G37*
G36*
X150743228Y-110560703D02*
G01*
X150898100Y-110624853D01*
X151037481Y-110717985D01*
X151156015Y-110836519D01*
X151249147Y-110975900D01*
X151313297Y-111130772D01*
X151346000Y-111295184D01*
X151346000Y-111462816D01*
X151313297Y-111627228D01*
X151249147Y-111782100D01*
X151156015Y-111921481D01*
X151037481Y-112040015D01*
X150898100Y-112133147D01*
X150743228Y-112197297D01*
X150578816Y-112230000D01*
X150411184Y-112230000D01*
X150246772Y-112197297D01*
X150091900Y-112133147D01*
X149952519Y-112040015D01*
X149833985Y-111921481D01*
X149740853Y-111782100D01*
X149676703Y-111627228D01*
X149644000Y-111462816D01*
X149644000Y-111295184D01*
X149676703Y-111130772D01*
X149740853Y-110975900D01*
X149833985Y-110836519D01*
X149952519Y-110717985D01*
X150091900Y-110624853D01*
X150246772Y-110560703D01*
X150411184Y-110528000D01*
X150578816Y-110528000D01*
X150743228Y-110560703D01*
X150743228Y-110560703D01*
G37*
G36*
X136813228Y-107512703D02*
G01*
X136968100Y-107576853D01*
X137107481Y-107669985D01*
X137226015Y-107788519D01*
X137319147Y-107927900D01*
X137383297Y-108082772D01*
X137416000Y-108247184D01*
X137416000Y-108414816D01*
X137383297Y-108579228D01*
X137319147Y-108734100D01*
X137226015Y-108873481D01*
X137107481Y-108992015D01*
X136968100Y-109085147D01*
X136813228Y-109149297D01*
X136648816Y-109182000D01*
X136481184Y-109182000D01*
X136316772Y-109149297D01*
X136161900Y-109085147D01*
X136022519Y-108992015D01*
X135903985Y-108873481D01*
X135810853Y-108734100D01*
X135746703Y-108579228D01*
X135714000Y-108414816D01*
X135714000Y-108247184D01*
X135746703Y-108082772D01*
X135810853Y-107927900D01*
X135903985Y-107788519D01*
X136022519Y-107669985D01*
X136161900Y-107576853D01*
X136316772Y-107512703D01*
X136481184Y-107480000D01*
X136648816Y-107480000D01*
X136813228Y-107512703D01*
X136813228Y-107512703D01*
G37*
G36*
X147790000Y-109182000D02*
G01*
X146088000Y-109182000D01*
X146088000Y-107480000D01*
X147790000Y-107480000D01*
X147790000Y-109182000D01*
X147790000Y-109182000D01*
G37*
G36*
X144687228Y-107512703D02*
G01*
X144842100Y-107576853D01*
X144981481Y-107669985D01*
X145100015Y-107788519D01*
X145193147Y-107927900D01*
X145257297Y-108082772D01*
X145290000Y-108247184D01*
X145290000Y-108414816D01*
X145257297Y-108579228D01*
X145193147Y-108734100D01*
X145100015Y-108873481D01*
X144981481Y-108992015D01*
X144842100Y-109085147D01*
X144687228Y-109149297D01*
X144522816Y-109182000D01*
X144355184Y-109182000D01*
X144190772Y-109149297D01*
X144035900Y-109085147D01*
X143896519Y-108992015D01*
X143777985Y-108873481D01*
X143684853Y-108734100D01*
X143620703Y-108579228D01*
X143588000Y-108414816D01*
X143588000Y-108247184D01*
X143620703Y-108082772D01*
X143684853Y-107927900D01*
X143777985Y-107788519D01*
X143896519Y-107669985D01*
X144035900Y-107576853D01*
X144190772Y-107512703D01*
X144355184Y-107480000D01*
X144522816Y-107480000D01*
X144687228Y-107512703D01*
X144687228Y-107512703D01*
G37*
G36*
X139916000Y-109182000D02*
G01*
X138214000Y-109182000D01*
X138214000Y-107480000D01*
X139916000Y-107480000D01*
X139916000Y-109182000D01*
X139916000Y-109182000D01*
G37*
G36*
X151915395Y-105384546D02*
G01*
X152088466Y-105456234D01*
X152088467Y-105456235D01*
X152244227Y-105560310D01*
X152376690Y-105692773D01*
X152376691Y-105692775D01*
X152480766Y-105848534D01*
X152552454Y-106021605D01*
X152589000Y-106205333D01*
X152589000Y-106392667D01*
X152552454Y-106576395D01*
X152480766Y-106749466D01*
X152480765Y-106749467D01*
X152376690Y-106905227D01*
X152244227Y-107037690D01*
X152165818Y-107090081D01*
X152088466Y-107141766D01*
X151915395Y-107213454D01*
X151731667Y-107250000D01*
X151544333Y-107250000D01*
X151360605Y-107213454D01*
X151187534Y-107141766D01*
X151110182Y-107090081D01*
X151031773Y-107037690D01*
X150899310Y-106905227D01*
X150795235Y-106749467D01*
X150795234Y-106749466D01*
X150723546Y-106576395D01*
X150687000Y-106392667D01*
X150687000Y-106205333D01*
X150723546Y-106021605D01*
X150795234Y-105848534D01*
X150899309Y-105692775D01*
X150899310Y-105692773D01*
X151031773Y-105560310D01*
X151187533Y-105456235D01*
X151187534Y-105456234D01*
X151360605Y-105384546D01*
X151544333Y-105348000D01*
X151731667Y-105348000D01*
X151915395Y-105384546D01*
X151915395Y-105384546D01*
G37*
G36*
X155129000Y-107250000D02*
G01*
X153227000Y-107250000D01*
X153227000Y-105348000D01*
X155129000Y-105348000D01*
X155129000Y-107250000D01*
X155129000Y-107250000D01*
G37*
G36*
X145838271Y-98174103D02*
G01*
X145894635Y-98179654D01*
X146111600Y-98245470D01*
X146111602Y-98245471D01*
X146311555Y-98352347D01*
X146486818Y-98496182D01*
X146630653Y-98671445D01*
X146731693Y-98860480D01*
X146737530Y-98871400D01*
X146803346Y-99088365D01*
X146803346Y-99088366D01*
X146825569Y-99314000D01*
X146803346Y-99539634D01*
X146737529Y-99756602D01*
X146630653Y-99956555D01*
X146486818Y-100131818D01*
X146311555Y-100275653D01*
X146111602Y-100382529D01*
X146111600Y-100382530D01*
X145894635Y-100448346D01*
X145838271Y-100453897D01*
X145725545Y-100465000D01*
X145612455Y-100465000D01*
X145499729Y-100453897D01*
X145443365Y-100448346D01*
X145226400Y-100382530D01*
X145226398Y-100382529D01*
X145026445Y-100275653D01*
X144851182Y-100131818D01*
X144707347Y-99956555D01*
X144600471Y-99756602D01*
X144534654Y-99539634D01*
X144512431Y-99314000D01*
X144534654Y-99088366D01*
X144534654Y-99088365D01*
X144600470Y-98871400D01*
X144606307Y-98860480D01*
X144707347Y-98671445D01*
X144851182Y-98496182D01*
X145026445Y-98352347D01*
X145226398Y-98245471D01*
X145226400Y-98245470D01*
X145443365Y-98179654D01*
X145499729Y-98174103D01*
X145612455Y-98163000D01*
X145725545Y-98163000D01*
X145838271Y-98174103D01*
X145838271Y-98174103D01*
G37*
G36*
X136660000Y-100465000D02*
G01*
X134358000Y-100465000D01*
X134358000Y-98163000D01*
X136660000Y-98163000D01*
X136660000Y-100465000D01*
X136660000Y-100465000D01*
G37*
G36*
X154169981Y-97605968D02*
G01*
X154352151Y-97681426D01*
X154516100Y-97790973D01*
X154655527Y-97930400D01*
X154765074Y-98094349D01*
X154840532Y-98276519D01*
X154879000Y-98469910D01*
X154879000Y-98667090D01*
X154840532Y-98860481D01*
X154765074Y-99042651D01*
X154655527Y-99206600D01*
X154516100Y-99346027D01*
X154352151Y-99455574D01*
X154169981Y-99531032D01*
X153976591Y-99569500D01*
X153779409Y-99569500D01*
X153586019Y-99531032D01*
X153403849Y-99455574D01*
X153239900Y-99346027D01*
X153100473Y-99206600D01*
X152990926Y-99042651D01*
X152915468Y-98860481D01*
X152877000Y-98667090D01*
X152877000Y-98469910D01*
X152915468Y-98276519D01*
X152990926Y-98094349D01*
X153100473Y-97930400D01*
X153239900Y-97790973D01*
X153403849Y-97681426D01*
X153586019Y-97605968D01*
X153682715Y-97586734D01*
X153779409Y-97567500D01*
X153976591Y-97567500D01*
X154169981Y-97605968D01*
X154169981Y-97605968D01*
G37*
G36*
X154073285Y-95086734D02*
G01*
X154169981Y-95105968D01*
X154352151Y-95181426D01*
X154516100Y-95290973D01*
X154655527Y-95430400D01*
X154765074Y-95594349D01*
X154840532Y-95776519D01*
X154879000Y-95969910D01*
X154879000Y-96167090D01*
X154840532Y-96360481D01*
X154765074Y-96542651D01*
X154655527Y-96706600D01*
X154516100Y-96846027D01*
X154352151Y-96955574D01*
X154169981Y-97031032D01*
X154073285Y-97050266D01*
X153976591Y-97069500D01*
X153779409Y-97069500D01*
X153682715Y-97050266D01*
X153586019Y-97031032D01*
X153403849Y-96955574D01*
X153239900Y-96846027D01*
X153100473Y-96706600D01*
X152990926Y-96542651D01*
X152915468Y-96360481D01*
X152877000Y-96167090D01*
X152877000Y-95969910D01*
X152915468Y-95776519D01*
X152990926Y-95594349D01*
X153100473Y-95430400D01*
X153239900Y-95290973D01*
X153403849Y-95181426D01*
X153586019Y-95105968D01*
X153779409Y-95067500D01*
X153976591Y-95067500D01*
X154073285Y-95086734D01*
X154073285Y-95086734D01*
G37*
G36*
X146820000Y-95046332D02*
G01*
X144518000Y-95046332D01*
X144518000Y-92744332D01*
X146820000Y-92744332D01*
X146820000Y-95046332D01*
X146820000Y-95046332D01*
G37*
G36*
X135678271Y-92755435D02*
G01*
X135734635Y-92760986D01*
X135951600Y-92826802D01*
X135951602Y-92826803D01*
X136151555Y-92933679D01*
X136326818Y-93077514D01*
X136470653Y-93252777D01*
X136577529Y-93452730D01*
X136643346Y-93669698D01*
X136665569Y-93895332D01*
X136643346Y-94120966D01*
X136577529Y-94337934D01*
X136470653Y-94537887D01*
X136326818Y-94713150D01*
X136151555Y-94856985D01*
X135951602Y-94963861D01*
X135951600Y-94963862D01*
X135734635Y-95029678D01*
X135678271Y-95035229D01*
X135565545Y-95046332D01*
X135452455Y-95046332D01*
X135339729Y-95035229D01*
X135283365Y-95029678D01*
X135066400Y-94963862D01*
X135066398Y-94963861D01*
X134866445Y-94856985D01*
X134691182Y-94713150D01*
X134547347Y-94537887D01*
X134440471Y-94337934D01*
X134374654Y-94120966D01*
X134352431Y-93895332D01*
X134374654Y-93669698D01*
X134440471Y-93452730D01*
X134547347Y-93252777D01*
X134691182Y-93077514D01*
X134866445Y-92933679D01*
X135066398Y-92826803D01*
X135066400Y-92826802D01*
X135283365Y-92760986D01*
X135339729Y-92755435D01*
X135452455Y-92744332D01*
X135565545Y-92744332D01*
X135678271Y-92755435D01*
X135678271Y-92755435D01*
G37*
G36*
X154879000Y-94569500D02*
G01*
X152877000Y-94569500D01*
X152877000Y-92567500D01*
X154879000Y-92567500D01*
X154879000Y-94569500D01*
X154879000Y-94569500D01*
G37*
G36*
X135678271Y-87336769D02*
G01*
X135734635Y-87342320D01*
X135951600Y-87408136D01*
X135951602Y-87408137D01*
X136151555Y-87515013D01*
X136326818Y-87658848D01*
X136470653Y-87834111D01*
X136577529Y-88034064D01*
X136643346Y-88251032D01*
X136665569Y-88476666D01*
X136643346Y-88702300D01*
X136577529Y-88919268D01*
X136470653Y-89119221D01*
X136326818Y-89294484D01*
X136151555Y-89438319D01*
X135951602Y-89545195D01*
X135951600Y-89545196D01*
X135734635Y-89611012D01*
X135678271Y-89616563D01*
X135565545Y-89627666D01*
X135452455Y-89627666D01*
X135339729Y-89616563D01*
X135283365Y-89611012D01*
X135066400Y-89545196D01*
X135066398Y-89545195D01*
X134866445Y-89438319D01*
X134691182Y-89294484D01*
X134547347Y-89119221D01*
X134440471Y-88919268D01*
X134374654Y-88702300D01*
X134352431Y-88476666D01*
X134374654Y-88251032D01*
X134440471Y-88034064D01*
X134547347Y-87834111D01*
X134691182Y-87658848D01*
X134866445Y-87515013D01*
X135066398Y-87408137D01*
X135066400Y-87408136D01*
X135283365Y-87342320D01*
X135339729Y-87336769D01*
X135452455Y-87325666D01*
X135565545Y-87325666D01*
X135678271Y-87336769D01*
X135678271Y-87336769D01*
G37*
G36*
X146820000Y-89627666D02*
G01*
X144518000Y-89627666D01*
X144518000Y-87325666D01*
X146820000Y-87325666D01*
X146820000Y-89627666D01*
X146820000Y-89627666D01*
G37*
G36*
X151915395Y-84683546D02*
G01*
X152088466Y-84755234D01*
X152088467Y-84755235D01*
X152244227Y-84859310D01*
X152376690Y-84991773D01*
X152376691Y-84991775D01*
X152480766Y-85147534D01*
X152552454Y-85320605D01*
X152589000Y-85504333D01*
X152589000Y-85691667D01*
X152552454Y-85875395D01*
X152480766Y-86048466D01*
X152480765Y-86048467D01*
X152376690Y-86204227D01*
X152244227Y-86336690D01*
X152165818Y-86389081D01*
X152088466Y-86440766D01*
X151915395Y-86512454D01*
X151731667Y-86549000D01*
X151544333Y-86549000D01*
X151360605Y-86512454D01*
X151187534Y-86440766D01*
X151110182Y-86389081D01*
X151031773Y-86336690D01*
X150899310Y-86204227D01*
X150795235Y-86048467D01*
X150795234Y-86048466D01*
X150723546Y-85875395D01*
X150687000Y-85691667D01*
X150687000Y-85504333D01*
X150723546Y-85320605D01*
X150795234Y-85147534D01*
X150899309Y-84991775D01*
X150899310Y-84991773D01*
X151031773Y-84859310D01*
X151187533Y-84755235D01*
X151187534Y-84755234D01*
X151360605Y-84683546D01*
X151544333Y-84647000D01*
X151731667Y-84647000D01*
X151915395Y-84683546D01*
X151915395Y-84683546D01*
G37*
G36*
X155129000Y-86549000D02*
G01*
X153227000Y-86549000D01*
X153227000Y-84647000D01*
X155129000Y-84647000D01*
X155129000Y-86549000D01*
X155129000Y-86549000D01*
G37*
G36*
X136660000Y-84209000D02*
G01*
X134358000Y-84209000D01*
X134358000Y-81907000D01*
X136660000Y-81907000D01*
X136660000Y-84209000D01*
X136660000Y-84209000D01*
G37*
G36*
X145838271Y-81918103D02*
G01*
X145894635Y-81923654D01*
X146111600Y-81989470D01*
X146111602Y-81989471D01*
X146311555Y-82096347D01*
X146486818Y-82240182D01*
X146630653Y-82415445D01*
X146737529Y-82615398D01*
X146803346Y-82832366D01*
X146825569Y-83058000D01*
X146803346Y-83283634D01*
X146737529Y-83500602D01*
X146630653Y-83700555D01*
X146486818Y-83875818D01*
X146311555Y-84019653D01*
X146111602Y-84126529D01*
X146111600Y-84126530D01*
X145894635Y-84192346D01*
X145838271Y-84197897D01*
X145725545Y-84209000D01*
X145612455Y-84209000D01*
X145499729Y-84197897D01*
X145443365Y-84192346D01*
X145226400Y-84126530D01*
X145226398Y-84126529D01*
X145026445Y-84019653D01*
X144851182Y-83875818D01*
X144707347Y-83700555D01*
X144600471Y-83500602D01*
X144534654Y-83283634D01*
X144512431Y-83058000D01*
X144534654Y-82832366D01*
X144600471Y-82615398D01*
X144707347Y-82415445D01*
X144851182Y-82240182D01*
X145026445Y-82096347D01*
X145226398Y-81989471D01*
X145226400Y-81989470D01*
X145443365Y-81923654D01*
X145499729Y-81918103D01*
X145612455Y-81907000D01*
X145725545Y-81907000D01*
X145838271Y-81918103D01*
X145838271Y-81918103D01*
G37*
G36*
X151886228Y-80080703D02*
G01*
X152041100Y-80144853D01*
X152180481Y-80237985D01*
X152299015Y-80356519D01*
X152392147Y-80495900D01*
X152456297Y-80650772D01*
X152489000Y-80815184D01*
X152489000Y-80982816D01*
X152456297Y-81147228D01*
X152392147Y-81302100D01*
X152299015Y-81441481D01*
X152180481Y-81560015D01*
X152041100Y-81653147D01*
X151886228Y-81717297D01*
X151721816Y-81750000D01*
X151554184Y-81750000D01*
X151389772Y-81717297D01*
X151234900Y-81653147D01*
X151095519Y-81560015D01*
X150976985Y-81441481D01*
X150883853Y-81302100D01*
X150819703Y-81147228D01*
X150787000Y-80982816D01*
X150787000Y-80815184D01*
X150819703Y-80650772D01*
X150883853Y-80495900D01*
X150976985Y-80356519D01*
X151095519Y-80237985D01*
X151234900Y-80144853D01*
X151389772Y-80080703D01*
X151554184Y-80048000D01*
X151721816Y-80048000D01*
X151886228Y-80080703D01*
X151886228Y-80080703D01*
G37*
G36*
X145319366Y-74924695D02*
G01*
X145476460Y-74972349D01*
X145621231Y-75049731D01*
X145748128Y-75153872D01*
X145852269Y-75280769D01*
X145929651Y-75425540D01*
X145977305Y-75582634D01*
X145994000Y-75752140D01*
X145994000Y-77665860D01*
X145977305Y-77835366D01*
X145929651Y-77992460D01*
X145852269Y-78137231D01*
X145748128Y-78264128D01*
X145621231Y-78368269D01*
X145476460Y-78445651D01*
X145319366Y-78493305D01*
X145149860Y-78510000D01*
X143236140Y-78510000D01*
X143066634Y-78493305D01*
X142909540Y-78445651D01*
X142764769Y-78368269D01*
X142637872Y-78264128D01*
X142533731Y-78137231D01*
X142456349Y-77992460D01*
X142408695Y-77835366D01*
X142392000Y-77665860D01*
X142392000Y-75752140D01*
X142408695Y-75582634D01*
X142456349Y-75425540D01*
X142533731Y-75280769D01*
X142637872Y-75153872D01*
X142764769Y-75049731D01*
X142909540Y-74972349D01*
X143066634Y-74924695D01*
X143236140Y-74908000D01*
X145149860Y-74908000D01*
X145319366Y-74924695D01*
X145319366Y-74924695D01*
G37*
G36*
X142169979Y-70222293D02*
G01*
X142303625Y-70262834D01*
X142426784Y-70328664D01*
X142534740Y-70417260D01*
X142623336Y-70525216D01*
X142689166Y-70648375D01*
X142729707Y-70782021D01*
X142744000Y-70927140D01*
X142744000Y-73090860D01*
X142729707Y-73235979D01*
X142689166Y-73369625D01*
X142623336Y-73492784D01*
X142534740Y-73600740D01*
X142426784Y-73689336D01*
X142303625Y-73755166D01*
X142169979Y-73795707D01*
X142024860Y-73810000D01*
X140361140Y-73810000D01*
X140216021Y-73795707D01*
X140082375Y-73755166D01*
X139959216Y-73689336D01*
X139851260Y-73600740D01*
X139762664Y-73492784D01*
X139696834Y-73369625D01*
X139656293Y-73235979D01*
X139642000Y-73090860D01*
X139642000Y-70927140D01*
X139656293Y-70782021D01*
X139696834Y-70648375D01*
X139762664Y-70525216D01*
X139851260Y-70417260D01*
X139959216Y-70328664D01*
X140082375Y-70262834D01*
X140216021Y-70222293D01*
X140361140Y-70208000D01*
X142024860Y-70208000D01*
X142169979Y-70222293D01*
X142169979Y-70222293D01*
G37*
G36*
X148994000Y-73810000D02*
G01*
X145392000Y-73810000D01*
X145392000Y-70208000D01*
X148994000Y-70208000D01*
X148994000Y-73810000D01*
X148994000Y-73810000D01*
G37*
G36*
X158098443Y-71495519D02*
G01*
X158164627Y-71502037D01*
X158334466Y-71553557D01*
X158490991Y-71637222D01*
X158526729Y-71666552D01*
X158628186Y-71749814D01*
X158711448Y-71851271D01*
X158740778Y-71887009D01*
X158824443Y-72043534D01*
X158875963Y-72213373D01*
X158893359Y-72390000D01*
X158875963Y-72566627D01*
X158824443Y-72736466D01*
X158740778Y-72892991D01*
X158711448Y-72928729D01*
X158628186Y-73030186D01*
X158554253Y-73090860D01*
X158490991Y-73142778D01*
X158334466Y-73226443D01*
X158164627Y-73277963D01*
X158098443Y-73284481D01*
X158032260Y-73291000D01*
X157943740Y-73291000D01*
X157877557Y-73284481D01*
X157811373Y-73277963D01*
X157641534Y-73226443D01*
X157485009Y-73142778D01*
X157421747Y-73090860D01*
X157347814Y-73030186D01*
X157264552Y-72928729D01*
X157235222Y-72892991D01*
X157151557Y-72736466D01*
X157100037Y-72566627D01*
X157082641Y-72390000D01*
X157100037Y-72213373D01*
X157151557Y-72043534D01*
X157235222Y-71887009D01*
X157264552Y-71851271D01*
X157347814Y-71749814D01*
X157449271Y-71666552D01*
X157485009Y-71637222D01*
X157641534Y-71553557D01*
X157811373Y-71502037D01*
X157877557Y-71495519D01*
X157943740Y-71489000D01*
X158032260Y-71489000D01*
X158098443Y-71495519D01*
X158098443Y-71495519D01*
G37*
G36*
X160638443Y-71495519D02*
G01*
X160704627Y-71502037D01*
X160874466Y-71553557D01*
X161030991Y-71637222D01*
X161066729Y-71666552D01*
X161168186Y-71749814D01*
X161251448Y-71851271D01*
X161280778Y-71887009D01*
X161364443Y-72043534D01*
X161415963Y-72213373D01*
X161433359Y-72390000D01*
X161415963Y-72566627D01*
X161364443Y-72736466D01*
X161280778Y-72892991D01*
X161251448Y-72928729D01*
X161168186Y-73030186D01*
X161094253Y-73090860D01*
X161030991Y-73142778D01*
X160874466Y-73226443D01*
X160704627Y-73277963D01*
X160638443Y-73284481D01*
X160572260Y-73291000D01*
X160483740Y-73291000D01*
X160417557Y-73284481D01*
X160351373Y-73277963D01*
X160181534Y-73226443D01*
X160025009Y-73142778D01*
X159961747Y-73090860D01*
X159887814Y-73030186D01*
X159804552Y-72928729D01*
X159775222Y-72892991D01*
X159691557Y-72736466D01*
X159640037Y-72566627D01*
X159622641Y-72390000D01*
X159640037Y-72213373D01*
X159691557Y-72043534D01*
X159775222Y-71887009D01*
X159804552Y-71851271D01*
X159887814Y-71749814D01*
X159989271Y-71666552D01*
X160025009Y-71637222D01*
X160181534Y-71553557D01*
X160351373Y-71502037D01*
X160417557Y-71495519D01*
X160483740Y-71489000D01*
X160572260Y-71489000D01*
X160638443Y-71495519D01*
X160638443Y-71495519D01*
G37*
G36*
X151804823Y-69900313D02*
G01*
X151965242Y-69948976D01*
X152097906Y-70019886D01*
X152113078Y-70027996D01*
X152242659Y-70134341D01*
X152349004Y-70263922D01*
X152349005Y-70263924D01*
X152428024Y-70411758D01*
X152476687Y-70572177D01*
X152493117Y-70739000D01*
X152476687Y-70905823D01*
X152428024Y-71066242D01*
X152357114Y-71198906D01*
X152349004Y-71214078D01*
X152242659Y-71343659D01*
X152113078Y-71450004D01*
X152113076Y-71450005D01*
X151965242Y-71529024D01*
X151804823Y-71577687D01*
X151679804Y-71590000D01*
X151596196Y-71590000D01*
X151471177Y-71577687D01*
X151310758Y-71529024D01*
X151162924Y-71450005D01*
X151162922Y-71450004D01*
X151033341Y-71343659D01*
X150926996Y-71214078D01*
X150918886Y-71198906D01*
X150847976Y-71066242D01*
X150799313Y-70905823D01*
X150782883Y-70739000D01*
X150799313Y-70572177D01*
X150847976Y-70411758D01*
X150926995Y-70263924D01*
X150926996Y-70263922D01*
X151033341Y-70134341D01*
X151162922Y-70027996D01*
X151178094Y-70019886D01*
X151310758Y-69948976D01*
X151471177Y-69900313D01*
X151596196Y-69888000D01*
X151679804Y-69888000D01*
X151804823Y-69900313D01*
X151804823Y-69900313D01*
G37*
G36*
X160638443Y-68955519D02*
G01*
X160704627Y-68962037D01*
X160874466Y-69013557D01*
X161030991Y-69097222D01*
X161066729Y-69126552D01*
X161168186Y-69209814D01*
X161251448Y-69311271D01*
X161280778Y-69347009D01*
X161364443Y-69503534D01*
X161415963Y-69673373D01*
X161433359Y-69850000D01*
X161415963Y-70026627D01*
X161364443Y-70196466D01*
X161280778Y-70352991D01*
X161251448Y-70388729D01*
X161168186Y-70490186D01*
X161092066Y-70552655D01*
X161030991Y-70602778D01*
X160874466Y-70686443D01*
X160704627Y-70737963D01*
X160638443Y-70744481D01*
X160572260Y-70751000D01*
X160483740Y-70751000D01*
X160417557Y-70744481D01*
X160351373Y-70737963D01*
X160181534Y-70686443D01*
X160025009Y-70602778D01*
X159963934Y-70552655D01*
X159887814Y-70490186D01*
X159804552Y-70388729D01*
X159775222Y-70352991D01*
X159691557Y-70196466D01*
X159640037Y-70026627D01*
X159622641Y-69850000D01*
X159640037Y-69673373D01*
X159691557Y-69503534D01*
X159775222Y-69347009D01*
X159804552Y-69311271D01*
X159887814Y-69209814D01*
X159989271Y-69126552D01*
X160025009Y-69097222D01*
X160181534Y-69013557D01*
X160351373Y-68962037D01*
X160417557Y-68955519D01*
X160483740Y-68949000D01*
X160572260Y-68949000D01*
X160638443Y-68955519D01*
X160638443Y-68955519D01*
G37*
G36*
X158889000Y-70751000D02*
G01*
X157087000Y-70751000D01*
X157087000Y-68949000D01*
X158889000Y-68949000D01*
X158889000Y-70751000D01*
X158889000Y-70751000D01*
G37*
M02*
