G04 #@! TF.GenerationSoftware,KiCad,Pcbnew,(5.1.4)-1*
G04 #@! TF.CreationDate,2019-11-08T15:33:28+07:00*
G04 #@! TF.ProjectId,PowerForBreadboard,506f7765-7246-46f7-9242-72656164626f,rev?*
G04 #@! TF.SameCoordinates,Original*
G04 #@! TF.FileFunction,Copper,L2,Bot*
G04 #@! TF.FilePolarity,Positive*
%FSLAX46Y46*%
G04 Gerber Fmt 4.6, Leading zero omitted, Abs format (unit mm)*
G04 Created by KiCad (PCBNEW (5.1.4)-1) date 2019-11-08 15:33:28*
%MOMM*%
%LPD*%
G04 APERTURE LIST*
%ADD10R,1.600000X1.600000*%
%ADD11C,1.600000*%
%ADD12R,2.200000X2.200000*%
%ADD13O,2.200000X2.200000*%
%ADD14R,3.500000X3.500000*%
%ADD15C,0.100000*%
%ADD16C,3.000000*%
%ADD17C,3.500000*%
%ADD18O,1.700000X1.700000*%
%ADD19R,1.700000X1.700000*%
%ADD20R,1.905000X2.000000*%
%ADD21O,1.905000X2.000000*%
%ADD22R,1.900000X1.900000*%
%ADD23C,1.900000*%
%ADD24C,1.800000*%
%ADD25R,1.800000X1.800000*%
%ADD26O,1.600000X1.600000*%
%ADD27C,1.000000*%
%ADD28C,0.800000*%
%ADD29C,0.250000*%
%ADD30C,0.300000*%
%ADD31C,0.254000*%
G04 APERTURE END LIST*
D10*
X146939000Y-108331000D03*
D11*
X144439000Y-108331000D03*
X136565000Y-108331000D03*
D10*
X139065000Y-108331000D03*
D12*
X135509000Y-83058000D03*
D13*
X145669000Y-83058000D03*
X135509000Y-88476666D03*
D12*
X145669000Y-88476666D03*
D13*
X145669000Y-99314000D03*
D12*
X135509000Y-99314000D03*
X145669000Y-93895332D03*
D13*
X135509000Y-93895332D03*
D14*
X147193000Y-72009000D03*
D15*
G36*
X142016513Y-70262611D02*
G01*
X142089318Y-70273411D01*
X142160714Y-70291295D01*
X142230013Y-70316090D01*
X142296548Y-70347559D01*
X142359678Y-70385398D01*
X142418795Y-70429242D01*
X142473330Y-70478670D01*
X142522758Y-70533205D01*
X142566602Y-70592322D01*
X142604441Y-70655452D01*
X142635910Y-70721987D01*
X142660705Y-70791286D01*
X142678589Y-70862682D01*
X142689389Y-70935487D01*
X142693000Y-71009000D01*
X142693000Y-73009000D01*
X142689389Y-73082513D01*
X142678589Y-73155318D01*
X142660705Y-73226714D01*
X142635910Y-73296013D01*
X142604441Y-73362548D01*
X142566602Y-73425678D01*
X142522758Y-73484795D01*
X142473330Y-73539330D01*
X142418795Y-73588758D01*
X142359678Y-73632602D01*
X142296548Y-73670441D01*
X142230013Y-73701910D01*
X142160714Y-73726705D01*
X142089318Y-73744589D01*
X142016513Y-73755389D01*
X141943000Y-73759000D01*
X140443000Y-73759000D01*
X140369487Y-73755389D01*
X140296682Y-73744589D01*
X140225286Y-73726705D01*
X140155987Y-73701910D01*
X140089452Y-73670441D01*
X140026322Y-73632602D01*
X139967205Y-73588758D01*
X139912670Y-73539330D01*
X139863242Y-73484795D01*
X139819398Y-73425678D01*
X139781559Y-73362548D01*
X139750090Y-73296013D01*
X139725295Y-73226714D01*
X139707411Y-73155318D01*
X139696611Y-73082513D01*
X139693000Y-73009000D01*
X139693000Y-71009000D01*
X139696611Y-70935487D01*
X139707411Y-70862682D01*
X139725295Y-70791286D01*
X139750090Y-70721987D01*
X139781559Y-70655452D01*
X139819398Y-70592322D01*
X139863242Y-70533205D01*
X139912670Y-70478670D01*
X139967205Y-70429242D01*
X140026322Y-70385398D01*
X140089452Y-70347559D01*
X140155987Y-70316090D01*
X140225286Y-70291295D01*
X140296682Y-70273411D01*
X140369487Y-70262611D01*
X140443000Y-70259000D01*
X141943000Y-70259000D01*
X142016513Y-70262611D01*
X142016513Y-70262611D01*
G37*
D16*
X141193000Y-72009000D03*
D15*
G36*
X145153765Y-74963213D02*
G01*
X145238704Y-74975813D01*
X145321999Y-74996677D01*
X145402848Y-75025605D01*
X145480472Y-75062319D01*
X145554124Y-75106464D01*
X145623094Y-75157616D01*
X145686718Y-75215282D01*
X145744384Y-75278906D01*
X145795536Y-75347876D01*
X145839681Y-75421528D01*
X145876395Y-75499152D01*
X145905323Y-75580001D01*
X145926187Y-75663296D01*
X145938787Y-75748235D01*
X145943000Y-75834000D01*
X145943000Y-77584000D01*
X145938787Y-77669765D01*
X145926187Y-77754704D01*
X145905323Y-77837999D01*
X145876395Y-77918848D01*
X145839681Y-77996472D01*
X145795536Y-78070124D01*
X145744384Y-78139094D01*
X145686718Y-78202718D01*
X145623094Y-78260384D01*
X145554124Y-78311536D01*
X145480472Y-78355681D01*
X145402848Y-78392395D01*
X145321999Y-78421323D01*
X145238704Y-78442187D01*
X145153765Y-78454787D01*
X145068000Y-78459000D01*
X143318000Y-78459000D01*
X143232235Y-78454787D01*
X143147296Y-78442187D01*
X143064001Y-78421323D01*
X142983152Y-78392395D01*
X142905528Y-78355681D01*
X142831876Y-78311536D01*
X142762906Y-78260384D01*
X142699282Y-78202718D01*
X142641616Y-78139094D01*
X142590464Y-78070124D01*
X142546319Y-77996472D01*
X142509605Y-77918848D01*
X142480677Y-77837999D01*
X142459813Y-77754704D01*
X142447213Y-77669765D01*
X142443000Y-77584000D01*
X142443000Y-75834000D01*
X142447213Y-75748235D01*
X142459813Y-75663296D01*
X142480677Y-75580001D01*
X142509605Y-75499152D01*
X142546319Y-75421528D01*
X142590464Y-75347876D01*
X142641616Y-75278906D01*
X142699282Y-75215282D01*
X142762906Y-75157616D01*
X142831876Y-75106464D01*
X142905528Y-75062319D01*
X142983152Y-75025605D01*
X143064001Y-74996677D01*
X143147296Y-74975813D01*
X143232235Y-74963213D01*
X143318000Y-74959000D01*
X145068000Y-74959000D01*
X145153765Y-74963213D01*
X145153765Y-74963213D01*
G37*
D17*
X144193000Y-76709000D03*
D18*
X160528000Y-72390000D03*
X157988000Y-72390000D03*
X160528000Y-69850000D03*
D19*
X157988000Y-69850000D03*
X157988000Y-118110000D03*
D18*
X160528000Y-118110000D03*
X157988000Y-120650000D03*
X160528000Y-120650000D03*
D20*
X143891000Y-116205000D03*
D21*
X141351000Y-116205000D03*
X138811000Y-116205000D03*
D22*
X153878000Y-93568500D03*
D23*
X153878000Y-96068500D03*
X153878000Y-98568500D03*
D24*
X151638000Y-106299000D03*
D25*
X154178000Y-106299000D03*
X154178000Y-85598000D03*
D24*
X151638000Y-85598000D03*
D26*
X150495000Y-121539000D03*
D11*
X150495000Y-111379000D03*
X151638000Y-80899000D03*
D26*
X151638000Y-70739000D03*
D27*
X146177000Y-104140000D03*
D28*
X139065000Y-104140000D03*
D29*
X159325919Y-72390000D02*
X157988000Y-72390000D01*
X160528000Y-72390000D02*
X159325919Y-72390000D01*
X157734000Y-72644000D02*
X157988000Y-72390000D01*
X160528000Y-120650000D02*
X157988000Y-120650000D01*
X157988000Y-120650000D02*
X157099000Y-121539000D01*
X157099000Y-121539000D02*
X151257000Y-121539000D01*
X141351000Y-116205000D02*
X141351000Y-118745000D01*
X144145000Y-121539000D02*
X151257000Y-121539000D01*
X141351000Y-118745000D02*
X144145000Y-121539000D01*
X135509000Y-93895332D02*
X135509000Y-88476666D01*
X136565000Y-108331000D02*
X133700010Y-105466010D01*
X133700010Y-95704322D02*
X135509000Y-93895332D01*
X133700010Y-105466010D02*
X133700010Y-95704322D01*
X141351000Y-111419000D02*
X144439000Y-108331000D01*
X141351000Y-116205000D02*
X141351000Y-111419000D01*
X136565000Y-108331000D02*
X136565000Y-117769000D01*
X137541000Y-118745000D02*
X141351000Y-118745000D01*
X136565000Y-117769000D02*
X137541000Y-118745000D01*
X133953366Y-88476666D02*
X135509000Y-88476666D01*
X133731000Y-88254300D02*
X133953366Y-88476666D01*
X157480000Y-72390000D02*
X153670000Y-68580000D01*
X157988000Y-72390000D02*
X157480000Y-72390000D01*
X153670000Y-68580000D02*
X136017000Y-68580000D01*
X136017000Y-68580000D02*
X133700010Y-70896990D01*
X133700010Y-70896990D02*
X133731000Y-86868000D01*
X133731000Y-86868000D02*
X133731000Y-88254300D01*
X145669000Y-83058000D02*
X145669000Y-88476666D01*
X147193000Y-81534000D02*
X147193000Y-72009000D01*
X145669000Y-83058000D02*
X147193000Y-81534000D01*
D30*
X145669000Y-99314000D02*
X145669000Y-93895332D01*
X145669000Y-92495332D02*
X145669000Y-93895332D01*
X141224000Y-88050332D02*
X145669000Y-92495332D01*
X141224000Y-82931000D02*
X141224000Y-88050332D01*
X141193000Y-82900000D02*
X141193000Y-72009000D01*
X141224000Y-82931000D02*
X141193000Y-82900000D01*
X143764000Y-116078000D02*
X143891000Y-116205000D01*
X136779000Y-83058000D02*
X135509000Y-83058000D01*
X138303000Y-84582000D02*
X136779000Y-83058000D01*
X138303000Y-97920000D02*
X138303000Y-84582000D01*
X135509000Y-99314000D02*
X136909000Y-99314000D01*
X136909000Y-99314000D02*
X138303000Y-97920000D01*
X146939000Y-107231000D02*
X146939000Y-108331000D01*
X135509000Y-100714000D02*
X136268000Y-101473000D01*
X135509000Y-99314000D02*
X135509000Y-100714000D01*
X136268000Y-101473000D02*
X142748000Y-101473000D01*
X142748000Y-101473000D02*
X143891000Y-102616000D01*
X143891000Y-102616000D02*
X143891000Y-104183000D01*
X143891000Y-104183000D02*
X146939000Y-107231000D01*
X145143500Y-116205000D02*
X143891000Y-116205000D01*
X146939000Y-114409500D02*
X145143500Y-116205000D01*
X146939000Y-108331000D02*
X146939000Y-114409500D01*
X148039000Y-108331000D02*
X146939000Y-108331000D01*
X150878792Y-108331000D02*
X148039000Y-108331000D01*
X151638000Y-107571792D02*
X150878792Y-108331000D01*
X151638000Y-106299000D02*
X151638000Y-107571792D01*
X152329500Y-96068500D02*
X153878000Y-96068500D01*
X152329500Y-96068500D02*
X150946500Y-96068500D01*
X150946500Y-96068500D02*
X149479000Y-97536000D01*
X149479000Y-97536000D02*
X149479000Y-100838000D01*
X149479000Y-100838000D02*
X146177000Y-104140000D01*
X139065000Y-108331000D02*
X139065000Y-104140000D01*
X139065000Y-115951000D02*
X138811000Y-116205000D01*
X139065000Y-108331000D02*
X139065000Y-115951000D01*
D29*
X154178000Y-106299000D02*
X154178000Y-109601000D01*
X152400000Y-111379000D02*
X150495000Y-111379000D01*
X154178000Y-109601000D02*
X152400000Y-111379000D01*
X153543000Y-80899000D02*
X151638000Y-80899000D01*
X154178000Y-85598000D02*
X154178000Y-81534000D01*
X154178000Y-81534000D02*
X153543000Y-80899000D01*
X160528000Y-69850000D02*
X157988000Y-69850000D01*
X159325919Y-118110000D02*
X157988000Y-118110000D01*
X160528000Y-118110000D02*
X159325919Y-118110000D01*
X152678000Y-93568500D02*
X153878000Y-93568500D01*
X151638000Y-92528500D02*
X152678000Y-93568500D01*
X151638000Y-85598000D02*
X151638000Y-92528500D01*
X155078000Y-93568500D02*
X155702000Y-94192500D01*
X153878000Y-93568500D02*
X155078000Y-93568500D01*
X156888000Y-118110000D02*
X157988000Y-118110000D01*
X155702000Y-116924000D02*
X156888000Y-118110000D01*
X155702000Y-94192500D02*
X155702000Y-116924000D01*
X162052000Y-69850000D02*
X160528000Y-69850000D01*
X162814000Y-70612000D02*
X162052000Y-69850000D01*
X149987000Y-83947000D02*
X149987000Y-75565000D01*
X151638000Y-85598000D02*
X149987000Y-83947000D01*
X149987000Y-75565000D02*
X151511000Y-74041000D01*
X151511000Y-74041000D02*
X161798000Y-74041000D01*
X161798000Y-74041000D02*
X162814000Y-73025000D01*
X162814000Y-73025000D02*
X162814000Y-70612000D01*
D31*
G36*
X134054506Y-100944537D02*
G01*
X134164820Y-101003502D01*
X134284518Y-101039812D01*
X134409000Y-101052072D01*
X134799602Y-101052072D01*
X134853139Y-101152233D01*
X134868656Y-101171140D01*
X134926655Y-101241812D01*
X134926659Y-101241816D01*
X134951237Y-101271764D01*
X134981185Y-101296342D01*
X135685657Y-102000815D01*
X135710236Y-102030764D01*
X135740184Y-102055342D01*
X135740187Y-102055345D01*
X135743710Y-102058236D01*
X135829767Y-102128862D01*
X135921265Y-102177768D01*
X135966140Y-102201754D01*
X136114112Y-102246641D01*
X136128490Y-102248057D01*
X136229439Y-102258000D01*
X136229446Y-102258000D01*
X136267999Y-102261797D01*
X136306552Y-102258000D01*
X142422843Y-102258000D01*
X143106000Y-102941158D01*
X143106001Y-104144438D01*
X143102203Y-104183000D01*
X143117359Y-104336886D01*
X143162246Y-104484859D01*
X143162247Y-104484860D01*
X143235139Y-104621233D01*
X143275690Y-104670644D01*
X143308655Y-104710812D01*
X143308659Y-104710816D01*
X143333237Y-104740764D01*
X143363185Y-104765342D01*
X145683236Y-107085394D01*
X145608463Y-107176506D01*
X145549498Y-107286820D01*
X145513188Y-107406518D01*
X145500928Y-107531000D01*
X145500928Y-107538215D01*
X145431702Y-107517903D01*
X144618605Y-108331000D01*
X145431702Y-109144097D01*
X145500928Y-109123785D01*
X145500928Y-109131000D01*
X145513188Y-109255482D01*
X145549498Y-109375180D01*
X145608463Y-109485494D01*
X145687815Y-109582185D01*
X145784506Y-109661537D01*
X145894820Y-109720502D01*
X146014518Y-109756812D01*
X146139000Y-109769072D01*
X146154000Y-109769072D01*
X146154001Y-114084341D01*
X145378844Y-114859499D01*
X145374037Y-114850506D01*
X145294685Y-114753815D01*
X145197994Y-114674463D01*
X145087680Y-114615498D01*
X144967982Y-114579188D01*
X144843500Y-114566928D01*
X142938500Y-114566928D01*
X142814018Y-114579188D01*
X142694320Y-114615498D01*
X142584006Y-114674463D01*
X142487315Y-114753815D01*
X142407963Y-114850506D01*
X142358941Y-114942219D01*
X142217923Y-114829031D01*
X141942094Y-114685429D01*
X141723980Y-114614437D01*
X141478000Y-114734406D01*
X141478000Y-116078000D01*
X141498000Y-116078000D01*
X141498000Y-116332000D01*
X141478000Y-116332000D01*
X141478000Y-117675594D01*
X141723980Y-117795563D01*
X141942094Y-117724571D01*
X142217923Y-117580969D01*
X142358941Y-117467781D01*
X142407963Y-117559494D01*
X142487315Y-117656185D01*
X142584006Y-117735537D01*
X142694320Y-117794502D01*
X142814018Y-117830812D01*
X142938500Y-117843072D01*
X144843500Y-117843072D01*
X144967982Y-117830812D01*
X145087680Y-117794502D01*
X145197994Y-117735537D01*
X145294685Y-117656185D01*
X145374037Y-117559494D01*
X145433002Y-117449180D01*
X145469312Y-117329482D01*
X145481572Y-117205000D01*
X145481572Y-116914399D01*
X145581733Y-116860862D01*
X145701264Y-116762764D01*
X145725847Y-116732810D01*
X147466816Y-114991842D01*
X147496764Y-114967264D01*
X147535923Y-114919550D01*
X147545450Y-114907941D01*
X147594862Y-114847733D01*
X147667754Y-114711360D01*
X147712641Y-114563387D01*
X147724000Y-114448061D01*
X147724000Y-114448054D01*
X147727797Y-114409501D01*
X147724000Y-114370948D01*
X147724000Y-109769072D01*
X147739000Y-109769072D01*
X147863482Y-109756812D01*
X147983180Y-109720502D01*
X148093494Y-109661537D01*
X148190185Y-109582185D01*
X148269537Y-109485494D01*
X148328502Y-109375180D01*
X148364812Y-109255482D01*
X148377072Y-109131000D01*
X148377072Y-109116000D01*
X150840239Y-109116000D01*
X150878792Y-109119797D01*
X150917345Y-109116000D01*
X150917353Y-109116000D01*
X151032679Y-109104641D01*
X151180652Y-109059754D01*
X151317025Y-108986862D01*
X151436556Y-108888764D01*
X151461139Y-108858811D01*
X152165815Y-108154135D01*
X152195764Y-108129556D01*
X152293862Y-108010025D01*
X152366754Y-107873652D01*
X152411641Y-107725679D01*
X152421919Y-107621331D01*
X152616505Y-107491312D01*
X152682944Y-107424873D01*
X152688498Y-107443180D01*
X152747463Y-107553494D01*
X152826815Y-107650185D01*
X152923506Y-107729537D01*
X153033820Y-107788502D01*
X153153518Y-107824812D01*
X153278000Y-107837072D01*
X153418000Y-107837072D01*
X153418001Y-109286197D01*
X152085199Y-110619000D01*
X151713043Y-110619000D01*
X151609637Y-110464241D01*
X151409759Y-110264363D01*
X151174727Y-110107320D01*
X150913574Y-109999147D01*
X150636335Y-109944000D01*
X150353665Y-109944000D01*
X150076426Y-109999147D01*
X149815273Y-110107320D01*
X149580241Y-110264363D01*
X149380363Y-110464241D01*
X149223320Y-110699273D01*
X149115147Y-110960426D01*
X149060000Y-111237665D01*
X149060000Y-111520335D01*
X149115147Y-111797574D01*
X149223320Y-112058727D01*
X149380363Y-112293759D01*
X149580241Y-112493637D01*
X149815273Y-112650680D01*
X150076426Y-112758853D01*
X150353665Y-112814000D01*
X150636335Y-112814000D01*
X150913574Y-112758853D01*
X151174727Y-112650680D01*
X151409759Y-112493637D01*
X151609637Y-112293759D01*
X151713043Y-112139000D01*
X152362678Y-112139000D01*
X152400000Y-112142676D01*
X152437322Y-112139000D01*
X152437333Y-112139000D01*
X152548986Y-112128003D01*
X152692247Y-112084546D01*
X152824276Y-112013974D01*
X152940001Y-111919001D01*
X152963804Y-111889997D01*
X154689003Y-110164799D01*
X154718001Y-110141001D01*
X154812974Y-110025276D01*
X154883546Y-109893247D01*
X154927003Y-109749986D01*
X154938000Y-109638333D01*
X154938000Y-109638325D01*
X154941676Y-109601000D01*
X154938000Y-109563675D01*
X154938000Y-107837072D01*
X154942001Y-107837072D01*
X154942001Y-116886667D01*
X154938324Y-116924000D01*
X154942001Y-116961333D01*
X154945199Y-116993797D01*
X154952998Y-117072985D01*
X154996454Y-117216246D01*
X155067026Y-117348276D01*
X155113131Y-117404454D01*
X155162000Y-117464001D01*
X155190998Y-117487799D01*
X156324201Y-118621003D01*
X156347999Y-118650001D01*
X156463724Y-118744974D01*
X156499928Y-118764326D01*
X156499928Y-118960000D01*
X156512188Y-119084482D01*
X156548498Y-119204180D01*
X156607463Y-119314494D01*
X156686815Y-119411185D01*
X156783506Y-119490537D01*
X156893820Y-119549502D01*
X156974466Y-119573966D01*
X156890412Y-119649731D01*
X156716359Y-119883080D01*
X156591175Y-120145901D01*
X156546524Y-120293110D01*
X156667845Y-120523000D01*
X157861000Y-120523000D01*
X157861000Y-120503000D01*
X158115000Y-120503000D01*
X158115000Y-120523000D01*
X160401000Y-120523000D01*
X160401000Y-120503000D01*
X160655000Y-120503000D01*
X160655000Y-120523000D01*
X161848155Y-120523000D01*
X161969476Y-120293110D01*
X161924825Y-120145901D01*
X161799641Y-119883080D01*
X161625588Y-119649731D01*
X161409355Y-119454822D01*
X161292477Y-119385201D01*
X161357014Y-119350706D01*
X161583134Y-119165134D01*
X161768706Y-118939014D01*
X161906599Y-118681034D01*
X161991513Y-118401111D01*
X162020185Y-118110000D01*
X161991513Y-117818889D01*
X161906599Y-117538966D01*
X161768706Y-117280986D01*
X161583134Y-117054866D01*
X161357014Y-116869294D01*
X161099034Y-116731401D01*
X160819111Y-116646487D01*
X160600950Y-116625000D01*
X160455050Y-116625000D01*
X160236889Y-116646487D01*
X159956966Y-116731401D01*
X159698986Y-116869294D01*
X159472866Y-117054866D01*
X159448393Y-117084687D01*
X159427502Y-117015820D01*
X159368537Y-116905506D01*
X159289185Y-116808815D01*
X159192494Y-116729463D01*
X159082180Y-116670498D01*
X158962482Y-116634188D01*
X158838000Y-116621928D01*
X157138000Y-116621928D01*
X157013518Y-116634188D01*
X156893820Y-116670498D01*
X156783506Y-116729463D01*
X156686815Y-116808815D01*
X156675457Y-116822655D01*
X156462000Y-116609199D01*
X156462000Y-116230000D01*
X165710001Y-116230000D01*
X165710000Y-122530000D01*
X151524176Y-122530000D01*
X151647385Y-122394131D01*
X151792070Y-122152881D01*
X151886909Y-121888040D01*
X151765624Y-121666000D01*
X150622000Y-121666000D01*
X150622000Y-121686000D01*
X150368000Y-121686000D01*
X150368000Y-121666000D01*
X149224376Y-121666000D01*
X149103091Y-121888040D01*
X149197930Y-122152881D01*
X149342615Y-122394131D01*
X149465824Y-122530000D01*
X134010000Y-122530000D01*
X134010000Y-121189960D01*
X149103091Y-121189960D01*
X149224376Y-121412000D01*
X150368000Y-121412000D01*
X150368000Y-120269085D01*
X150622000Y-120269085D01*
X150622000Y-121412000D01*
X151765624Y-121412000D01*
X151886909Y-121189960D01*
X151821353Y-121006890D01*
X156546524Y-121006890D01*
X156591175Y-121154099D01*
X156716359Y-121416920D01*
X156890412Y-121650269D01*
X157106645Y-121845178D01*
X157356748Y-121994157D01*
X157631109Y-122091481D01*
X157861000Y-121970814D01*
X157861000Y-120777000D01*
X158115000Y-120777000D01*
X158115000Y-121970814D01*
X158344891Y-122091481D01*
X158619252Y-121994157D01*
X158869355Y-121845178D01*
X159085588Y-121650269D01*
X159258000Y-121419120D01*
X159430412Y-121650269D01*
X159646645Y-121845178D01*
X159896748Y-121994157D01*
X160171109Y-122091481D01*
X160401000Y-121970814D01*
X160401000Y-120777000D01*
X160655000Y-120777000D01*
X160655000Y-121970814D01*
X160884891Y-122091481D01*
X161159252Y-121994157D01*
X161409355Y-121845178D01*
X161625588Y-121650269D01*
X161799641Y-121416920D01*
X161924825Y-121154099D01*
X161969476Y-121006890D01*
X161848155Y-120777000D01*
X160655000Y-120777000D01*
X160401000Y-120777000D01*
X158115000Y-120777000D01*
X157861000Y-120777000D01*
X156667845Y-120777000D01*
X156546524Y-121006890D01*
X151821353Y-121006890D01*
X151792070Y-120925119D01*
X151647385Y-120683869D01*
X151458414Y-120475481D01*
X151232420Y-120307963D01*
X150978087Y-120187754D01*
X150844039Y-120147096D01*
X150622000Y-120269085D01*
X150368000Y-120269085D01*
X150145961Y-120147096D01*
X150011913Y-120187754D01*
X149757580Y-120307963D01*
X149531586Y-120475481D01*
X149342615Y-120683869D01*
X149197930Y-120925119D01*
X149103091Y-121189960D01*
X134010000Y-121189960D01*
X134010000Y-109323702D01*
X135751903Y-109323702D01*
X135823486Y-109567671D01*
X136078996Y-109688571D01*
X136353184Y-109757300D01*
X136635512Y-109771217D01*
X136915130Y-109729787D01*
X137181292Y-109634603D01*
X137306514Y-109567671D01*
X137378097Y-109323702D01*
X136565000Y-108510605D01*
X135751903Y-109323702D01*
X134010000Y-109323702D01*
X134010000Y-108401512D01*
X135124783Y-108401512D01*
X135166213Y-108681130D01*
X135261397Y-108947292D01*
X135328329Y-109072514D01*
X135572298Y-109144097D01*
X136385395Y-108331000D01*
X136744605Y-108331000D01*
X137557702Y-109144097D01*
X137626928Y-109123785D01*
X137626928Y-109131000D01*
X137639188Y-109255482D01*
X137675498Y-109375180D01*
X137734463Y-109485494D01*
X137813815Y-109582185D01*
X137910506Y-109661537D01*
X138020820Y-109720502D01*
X138140518Y-109756812D01*
X138265000Y-109769072D01*
X138280000Y-109769072D01*
X138280001Y-114659644D01*
X138200552Y-114683745D01*
X137924766Y-114831155D01*
X137683037Y-115029537D01*
X137484655Y-115271265D01*
X137337245Y-115547051D01*
X137246470Y-115846296D01*
X137223500Y-116079514D01*
X137223500Y-116330485D01*
X137246470Y-116563703D01*
X137337245Y-116862948D01*
X137484655Y-117138734D01*
X137683037Y-117380463D01*
X137924765Y-117578845D01*
X138200551Y-117726255D01*
X138499796Y-117817030D01*
X138811000Y-117847681D01*
X139122203Y-117817030D01*
X139421448Y-117726255D01*
X139697234Y-117578845D01*
X139938963Y-117380463D01*
X140086163Y-117201101D01*
X140241563Y-117386315D01*
X140484077Y-117580969D01*
X140759906Y-117724571D01*
X140978020Y-117795563D01*
X141224000Y-117675594D01*
X141224000Y-116332000D01*
X141204000Y-116332000D01*
X141204000Y-116078000D01*
X141224000Y-116078000D01*
X141224000Y-114734406D01*
X140978020Y-114614437D01*
X140759906Y-114685429D01*
X140484077Y-114829031D01*
X140241563Y-115023685D01*
X140086162Y-115208900D01*
X139938963Y-115029537D01*
X139850000Y-114956527D01*
X139850000Y-109769072D01*
X139865000Y-109769072D01*
X139989482Y-109756812D01*
X140109180Y-109720502D01*
X140219494Y-109661537D01*
X140316185Y-109582185D01*
X140395537Y-109485494D01*
X140454502Y-109375180D01*
X140470117Y-109323702D01*
X143625903Y-109323702D01*
X143697486Y-109567671D01*
X143952996Y-109688571D01*
X144227184Y-109757300D01*
X144509512Y-109771217D01*
X144789130Y-109729787D01*
X145055292Y-109634603D01*
X145180514Y-109567671D01*
X145252097Y-109323702D01*
X144439000Y-108510605D01*
X143625903Y-109323702D01*
X140470117Y-109323702D01*
X140490812Y-109255482D01*
X140503072Y-109131000D01*
X140503072Y-108401512D01*
X142998783Y-108401512D01*
X143040213Y-108681130D01*
X143135397Y-108947292D01*
X143202329Y-109072514D01*
X143446298Y-109144097D01*
X144259395Y-108331000D01*
X143446298Y-107517903D01*
X143202329Y-107589486D01*
X143081429Y-107844996D01*
X143012700Y-108119184D01*
X142998783Y-108401512D01*
X140503072Y-108401512D01*
X140503072Y-107531000D01*
X140490812Y-107406518D01*
X140470118Y-107338298D01*
X143625903Y-107338298D01*
X144439000Y-108151395D01*
X145252097Y-107338298D01*
X145180514Y-107094329D01*
X144925004Y-106973429D01*
X144650816Y-106904700D01*
X144368488Y-106890783D01*
X144088870Y-106932213D01*
X143822708Y-107027397D01*
X143697486Y-107094329D01*
X143625903Y-107338298D01*
X140470118Y-107338298D01*
X140454502Y-107286820D01*
X140395537Y-107176506D01*
X140316185Y-107079815D01*
X140219494Y-107000463D01*
X140109180Y-106941498D01*
X139989482Y-106905188D01*
X139865000Y-106892928D01*
X139850000Y-106892928D01*
X139850000Y-104818711D01*
X139868937Y-104799774D01*
X139982205Y-104630256D01*
X140060226Y-104441898D01*
X140100000Y-104241939D01*
X140100000Y-104038061D01*
X140060226Y-103838102D01*
X139982205Y-103649744D01*
X139868937Y-103480226D01*
X139724774Y-103336063D01*
X139555256Y-103222795D01*
X139366898Y-103144774D01*
X139166939Y-103105000D01*
X138963061Y-103105000D01*
X138763102Y-103144774D01*
X138574744Y-103222795D01*
X138405226Y-103336063D01*
X138261063Y-103480226D01*
X138147795Y-103649744D01*
X138069774Y-103838102D01*
X138030000Y-104038061D01*
X138030000Y-104241939D01*
X138069774Y-104441898D01*
X138147795Y-104630256D01*
X138261063Y-104799774D01*
X138280001Y-104818712D01*
X138280000Y-106892928D01*
X138265000Y-106892928D01*
X138140518Y-106905188D01*
X138020820Y-106941498D01*
X137910506Y-107000463D01*
X137813815Y-107079815D01*
X137734463Y-107176506D01*
X137675498Y-107286820D01*
X137639188Y-107406518D01*
X137626928Y-107531000D01*
X137626928Y-107538215D01*
X137557702Y-107517903D01*
X136744605Y-108331000D01*
X136385395Y-108331000D01*
X135572298Y-107517903D01*
X135328329Y-107589486D01*
X135207429Y-107844996D01*
X135138700Y-108119184D01*
X135124783Y-108401512D01*
X134010000Y-108401512D01*
X134010000Y-107338298D01*
X135751903Y-107338298D01*
X136565000Y-108151395D01*
X137378097Y-107338298D01*
X137306514Y-107094329D01*
X137051004Y-106973429D01*
X136776816Y-106904700D01*
X136494488Y-106890783D01*
X136214870Y-106932213D01*
X135948708Y-107027397D01*
X135823486Y-107094329D01*
X135751903Y-107338298D01*
X134010000Y-107338298D01*
X134010000Y-100908012D01*
X134054506Y-100944537D01*
X134054506Y-100944537D01*
G37*
X134054506Y-100944537D02*
X134164820Y-101003502D01*
X134284518Y-101039812D01*
X134409000Y-101052072D01*
X134799602Y-101052072D01*
X134853139Y-101152233D01*
X134868656Y-101171140D01*
X134926655Y-101241812D01*
X134926659Y-101241816D01*
X134951237Y-101271764D01*
X134981185Y-101296342D01*
X135685657Y-102000815D01*
X135710236Y-102030764D01*
X135740184Y-102055342D01*
X135740187Y-102055345D01*
X135743710Y-102058236D01*
X135829767Y-102128862D01*
X135921265Y-102177768D01*
X135966140Y-102201754D01*
X136114112Y-102246641D01*
X136128490Y-102248057D01*
X136229439Y-102258000D01*
X136229446Y-102258000D01*
X136267999Y-102261797D01*
X136306552Y-102258000D01*
X142422843Y-102258000D01*
X143106000Y-102941158D01*
X143106001Y-104144438D01*
X143102203Y-104183000D01*
X143117359Y-104336886D01*
X143162246Y-104484859D01*
X143162247Y-104484860D01*
X143235139Y-104621233D01*
X143275690Y-104670644D01*
X143308655Y-104710812D01*
X143308659Y-104710816D01*
X143333237Y-104740764D01*
X143363185Y-104765342D01*
X145683236Y-107085394D01*
X145608463Y-107176506D01*
X145549498Y-107286820D01*
X145513188Y-107406518D01*
X145500928Y-107531000D01*
X145500928Y-107538215D01*
X145431702Y-107517903D01*
X144618605Y-108331000D01*
X145431702Y-109144097D01*
X145500928Y-109123785D01*
X145500928Y-109131000D01*
X145513188Y-109255482D01*
X145549498Y-109375180D01*
X145608463Y-109485494D01*
X145687815Y-109582185D01*
X145784506Y-109661537D01*
X145894820Y-109720502D01*
X146014518Y-109756812D01*
X146139000Y-109769072D01*
X146154000Y-109769072D01*
X146154001Y-114084341D01*
X145378844Y-114859499D01*
X145374037Y-114850506D01*
X145294685Y-114753815D01*
X145197994Y-114674463D01*
X145087680Y-114615498D01*
X144967982Y-114579188D01*
X144843500Y-114566928D01*
X142938500Y-114566928D01*
X142814018Y-114579188D01*
X142694320Y-114615498D01*
X142584006Y-114674463D01*
X142487315Y-114753815D01*
X142407963Y-114850506D01*
X142358941Y-114942219D01*
X142217923Y-114829031D01*
X141942094Y-114685429D01*
X141723980Y-114614437D01*
X141478000Y-114734406D01*
X141478000Y-116078000D01*
X141498000Y-116078000D01*
X141498000Y-116332000D01*
X141478000Y-116332000D01*
X141478000Y-117675594D01*
X141723980Y-117795563D01*
X141942094Y-117724571D01*
X142217923Y-117580969D01*
X142358941Y-117467781D01*
X142407963Y-117559494D01*
X142487315Y-117656185D01*
X142584006Y-117735537D01*
X142694320Y-117794502D01*
X142814018Y-117830812D01*
X142938500Y-117843072D01*
X144843500Y-117843072D01*
X144967982Y-117830812D01*
X145087680Y-117794502D01*
X145197994Y-117735537D01*
X145294685Y-117656185D01*
X145374037Y-117559494D01*
X145433002Y-117449180D01*
X145469312Y-117329482D01*
X145481572Y-117205000D01*
X145481572Y-116914399D01*
X145581733Y-116860862D01*
X145701264Y-116762764D01*
X145725847Y-116732810D01*
X147466816Y-114991842D01*
X147496764Y-114967264D01*
X147535923Y-114919550D01*
X147545450Y-114907941D01*
X147594862Y-114847733D01*
X147667754Y-114711360D01*
X147712641Y-114563387D01*
X147724000Y-114448061D01*
X147724000Y-114448054D01*
X147727797Y-114409501D01*
X147724000Y-114370948D01*
X147724000Y-109769072D01*
X147739000Y-109769072D01*
X147863482Y-109756812D01*
X147983180Y-109720502D01*
X148093494Y-109661537D01*
X148190185Y-109582185D01*
X148269537Y-109485494D01*
X148328502Y-109375180D01*
X148364812Y-109255482D01*
X148377072Y-109131000D01*
X148377072Y-109116000D01*
X150840239Y-109116000D01*
X150878792Y-109119797D01*
X150917345Y-109116000D01*
X150917353Y-109116000D01*
X151032679Y-109104641D01*
X151180652Y-109059754D01*
X151317025Y-108986862D01*
X151436556Y-108888764D01*
X151461139Y-108858811D01*
X152165815Y-108154135D01*
X152195764Y-108129556D01*
X152293862Y-108010025D01*
X152366754Y-107873652D01*
X152411641Y-107725679D01*
X152421919Y-107621331D01*
X152616505Y-107491312D01*
X152682944Y-107424873D01*
X152688498Y-107443180D01*
X152747463Y-107553494D01*
X152826815Y-107650185D01*
X152923506Y-107729537D01*
X153033820Y-107788502D01*
X153153518Y-107824812D01*
X153278000Y-107837072D01*
X153418000Y-107837072D01*
X153418001Y-109286197D01*
X152085199Y-110619000D01*
X151713043Y-110619000D01*
X151609637Y-110464241D01*
X151409759Y-110264363D01*
X151174727Y-110107320D01*
X150913574Y-109999147D01*
X150636335Y-109944000D01*
X150353665Y-109944000D01*
X150076426Y-109999147D01*
X149815273Y-110107320D01*
X149580241Y-110264363D01*
X149380363Y-110464241D01*
X149223320Y-110699273D01*
X149115147Y-110960426D01*
X149060000Y-111237665D01*
X149060000Y-111520335D01*
X149115147Y-111797574D01*
X149223320Y-112058727D01*
X149380363Y-112293759D01*
X149580241Y-112493637D01*
X149815273Y-112650680D01*
X150076426Y-112758853D01*
X150353665Y-112814000D01*
X150636335Y-112814000D01*
X150913574Y-112758853D01*
X151174727Y-112650680D01*
X151409759Y-112493637D01*
X151609637Y-112293759D01*
X151713043Y-112139000D01*
X152362678Y-112139000D01*
X152400000Y-112142676D01*
X152437322Y-112139000D01*
X152437333Y-112139000D01*
X152548986Y-112128003D01*
X152692247Y-112084546D01*
X152824276Y-112013974D01*
X152940001Y-111919001D01*
X152963804Y-111889997D01*
X154689003Y-110164799D01*
X154718001Y-110141001D01*
X154812974Y-110025276D01*
X154883546Y-109893247D01*
X154927003Y-109749986D01*
X154938000Y-109638333D01*
X154938000Y-109638325D01*
X154941676Y-109601000D01*
X154938000Y-109563675D01*
X154938000Y-107837072D01*
X154942001Y-107837072D01*
X154942001Y-116886667D01*
X154938324Y-116924000D01*
X154942001Y-116961333D01*
X154945199Y-116993797D01*
X154952998Y-117072985D01*
X154996454Y-117216246D01*
X155067026Y-117348276D01*
X155113131Y-117404454D01*
X155162000Y-117464001D01*
X155190998Y-117487799D01*
X156324201Y-118621003D01*
X156347999Y-118650001D01*
X156463724Y-118744974D01*
X156499928Y-118764326D01*
X156499928Y-118960000D01*
X156512188Y-119084482D01*
X156548498Y-119204180D01*
X156607463Y-119314494D01*
X156686815Y-119411185D01*
X156783506Y-119490537D01*
X156893820Y-119549502D01*
X156974466Y-119573966D01*
X156890412Y-119649731D01*
X156716359Y-119883080D01*
X156591175Y-120145901D01*
X156546524Y-120293110D01*
X156667845Y-120523000D01*
X157861000Y-120523000D01*
X157861000Y-120503000D01*
X158115000Y-120503000D01*
X158115000Y-120523000D01*
X160401000Y-120523000D01*
X160401000Y-120503000D01*
X160655000Y-120503000D01*
X160655000Y-120523000D01*
X161848155Y-120523000D01*
X161969476Y-120293110D01*
X161924825Y-120145901D01*
X161799641Y-119883080D01*
X161625588Y-119649731D01*
X161409355Y-119454822D01*
X161292477Y-119385201D01*
X161357014Y-119350706D01*
X161583134Y-119165134D01*
X161768706Y-118939014D01*
X161906599Y-118681034D01*
X161991513Y-118401111D01*
X162020185Y-118110000D01*
X161991513Y-117818889D01*
X161906599Y-117538966D01*
X161768706Y-117280986D01*
X161583134Y-117054866D01*
X161357014Y-116869294D01*
X161099034Y-116731401D01*
X160819111Y-116646487D01*
X160600950Y-116625000D01*
X160455050Y-116625000D01*
X160236889Y-116646487D01*
X159956966Y-116731401D01*
X159698986Y-116869294D01*
X159472866Y-117054866D01*
X159448393Y-117084687D01*
X159427502Y-117015820D01*
X159368537Y-116905506D01*
X159289185Y-116808815D01*
X159192494Y-116729463D01*
X159082180Y-116670498D01*
X158962482Y-116634188D01*
X158838000Y-116621928D01*
X157138000Y-116621928D01*
X157013518Y-116634188D01*
X156893820Y-116670498D01*
X156783506Y-116729463D01*
X156686815Y-116808815D01*
X156675457Y-116822655D01*
X156462000Y-116609199D01*
X156462000Y-116230000D01*
X165710001Y-116230000D01*
X165710000Y-122530000D01*
X151524176Y-122530000D01*
X151647385Y-122394131D01*
X151792070Y-122152881D01*
X151886909Y-121888040D01*
X151765624Y-121666000D01*
X150622000Y-121666000D01*
X150622000Y-121686000D01*
X150368000Y-121686000D01*
X150368000Y-121666000D01*
X149224376Y-121666000D01*
X149103091Y-121888040D01*
X149197930Y-122152881D01*
X149342615Y-122394131D01*
X149465824Y-122530000D01*
X134010000Y-122530000D01*
X134010000Y-121189960D01*
X149103091Y-121189960D01*
X149224376Y-121412000D01*
X150368000Y-121412000D01*
X150368000Y-120269085D01*
X150622000Y-120269085D01*
X150622000Y-121412000D01*
X151765624Y-121412000D01*
X151886909Y-121189960D01*
X151821353Y-121006890D01*
X156546524Y-121006890D01*
X156591175Y-121154099D01*
X156716359Y-121416920D01*
X156890412Y-121650269D01*
X157106645Y-121845178D01*
X157356748Y-121994157D01*
X157631109Y-122091481D01*
X157861000Y-121970814D01*
X157861000Y-120777000D01*
X158115000Y-120777000D01*
X158115000Y-121970814D01*
X158344891Y-122091481D01*
X158619252Y-121994157D01*
X158869355Y-121845178D01*
X159085588Y-121650269D01*
X159258000Y-121419120D01*
X159430412Y-121650269D01*
X159646645Y-121845178D01*
X159896748Y-121994157D01*
X160171109Y-122091481D01*
X160401000Y-121970814D01*
X160401000Y-120777000D01*
X160655000Y-120777000D01*
X160655000Y-121970814D01*
X160884891Y-122091481D01*
X161159252Y-121994157D01*
X161409355Y-121845178D01*
X161625588Y-121650269D01*
X161799641Y-121416920D01*
X161924825Y-121154099D01*
X161969476Y-121006890D01*
X161848155Y-120777000D01*
X160655000Y-120777000D01*
X160401000Y-120777000D01*
X158115000Y-120777000D01*
X157861000Y-120777000D01*
X156667845Y-120777000D01*
X156546524Y-121006890D01*
X151821353Y-121006890D01*
X151792070Y-120925119D01*
X151647385Y-120683869D01*
X151458414Y-120475481D01*
X151232420Y-120307963D01*
X150978087Y-120187754D01*
X150844039Y-120147096D01*
X150622000Y-120269085D01*
X150368000Y-120269085D01*
X150145961Y-120147096D01*
X150011913Y-120187754D01*
X149757580Y-120307963D01*
X149531586Y-120475481D01*
X149342615Y-120683869D01*
X149197930Y-120925119D01*
X149103091Y-121189960D01*
X134010000Y-121189960D01*
X134010000Y-109323702D01*
X135751903Y-109323702D01*
X135823486Y-109567671D01*
X136078996Y-109688571D01*
X136353184Y-109757300D01*
X136635512Y-109771217D01*
X136915130Y-109729787D01*
X137181292Y-109634603D01*
X137306514Y-109567671D01*
X137378097Y-109323702D01*
X136565000Y-108510605D01*
X135751903Y-109323702D01*
X134010000Y-109323702D01*
X134010000Y-108401512D01*
X135124783Y-108401512D01*
X135166213Y-108681130D01*
X135261397Y-108947292D01*
X135328329Y-109072514D01*
X135572298Y-109144097D01*
X136385395Y-108331000D01*
X136744605Y-108331000D01*
X137557702Y-109144097D01*
X137626928Y-109123785D01*
X137626928Y-109131000D01*
X137639188Y-109255482D01*
X137675498Y-109375180D01*
X137734463Y-109485494D01*
X137813815Y-109582185D01*
X137910506Y-109661537D01*
X138020820Y-109720502D01*
X138140518Y-109756812D01*
X138265000Y-109769072D01*
X138280000Y-109769072D01*
X138280001Y-114659644D01*
X138200552Y-114683745D01*
X137924766Y-114831155D01*
X137683037Y-115029537D01*
X137484655Y-115271265D01*
X137337245Y-115547051D01*
X137246470Y-115846296D01*
X137223500Y-116079514D01*
X137223500Y-116330485D01*
X137246470Y-116563703D01*
X137337245Y-116862948D01*
X137484655Y-117138734D01*
X137683037Y-117380463D01*
X137924765Y-117578845D01*
X138200551Y-117726255D01*
X138499796Y-117817030D01*
X138811000Y-117847681D01*
X139122203Y-117817030D01*
X139421448Y-117726255D01*
X139697234Y-117578845D01*
X139938963Y-117380463D01*
X140086163Y-117201101D01*
X140241563Y-117386315D01*
X140484077Y-117580969D01*
X140759906Y-117724571D01*
X140978020Y-117795563D01*
X141224000Y-117675594D01*
X141224000Y-116332000D01*
X141204000Y-116332000D01*
X141204000Y-116078000D01*
X141224000Y-116078000D01*
X141224000Y-114734406D01*
X140978020Y-114614437D01*
X140759906Y-114685429D01*
X140484077Y-114829031D01*
X140241563Y-115023685D01*
X140086162Y-115208900D01*
X139938963Y-115029537D01*
X139850000Y-114956527D01*
X139850000Y-109769072D01*
X139865000Y-109769072D01*
X139989482Y-109756812D01*
X140109180Y-109720502D01*
X140219494Y-109661537D01*
X140316185Y-109582185D01*
X140395537Y-109485494D01*
X140454502Y-109375180D01*
X140470117Y-109323702D01*
X143625903Y-109323702D01*
X143697486Y-109567671D01*
X143952996Y-109688571D01*
X144227184Y-109757300D01*
X144509512Y-109771217D01*
X144789130Y-109729787D01*
X145055292Y-109634603D01*
X145180514Y-109567671D01*
X145252097Y-109323702D01*
X144439000Y-108510605D01*
X143625903Y-109323702D01*
X140470117Y-109323702D01*
X140490812Y-109255482D01*
X140503072Y-109131000D01*
X140503072Y-108401512D01*
X142998783Y-108401512D01*
X143040213Y-108681130D01*
X143135397Y-108947292D01*
X143202329Y-109072514D01*
X143446298Y-109144097D01*
X144259395Y-108331000D01*
X143446298Y-107517903D01*
X143202329Y-107589486D01*
X143081429Y-107844996D01*
X143012700Y-108119184D01*
X142998783Y-108401512D01*
X140503072Y-108401512D01*
X140503072Y-107531000D01*
X140490812Y-107406518D01*
X140470118Y-107338298D01*
X143625903Y-107338298D01*
X144439000Y-108151395D01*
X145252097Y-107338298D01*
X145180514Y-107094329D01*
X144925004Y-106973429D01*
X144650816Y-106904700D01*
X144368488Y-106890783D01*
X144088870Y-106932213D01*
X143822708Y-107027397D01*
X143697486Y-107094329D01*
X143625903Y-107338298D01*
X140470118Y-107338298D01*
X140454502Y-107286820D01*
X140395537Y-107176506D01*
X140316185Y-107079815D01*
X140219494Y-107000463D01*
X140109180Y-106941498D01*
X139989482Y-106905188D01*
X139865000Y-106892928D01*
X139850000Y-106892928D01*
X139850000Y-104818711D01*
X139868937Y-104799774D01*
X139982205Y-104630256D01*
X140060226Y-104441898D01*
X140100000Y-104241939D01*
X140100000Y-104038061D01*
X140060226Y-103838102D01*
X139982205Y-103649744D01*
X139868937Y-103480226D01*
X139724774Y-103336063D01*
X139555256Y-103222795D01*
X139366898Y-103144774D01*
X139166939Y-103105000D01*
X138963061Y-103105000D01*
X138763102Y-103144774D01*
X138574744Y-103222795D01*
X138405226Y-103336063D01*
X138261063Y-103480226D01*
X138147795Y-103649744D01*
X138069774Y-103838102D01*
X138030000Y-104038061D01*
X138030000Y-104241939D01*
X138069774Y-104441898D01*
X138147795Y-104630256D01*
X138261063Y-104799774D01*
X138280001Y-104818712D01*
X138280000Y-106892928D01*
X138265000Y-106892928D01*
X138140518Y-106905188D01*
X138020820Y-106941498D01*
X137910506Y-107000463D01*
X137813815Y-107079815D01*
X137734463Y-107176506D01*
X137675498Y-107286820D01*
X137639188Y-107406518D01*
X137626928Y-107531000D01*
X137626928Y-107538215D01*
X137557702Y-107517903D01*
X136744605Y-108331000D01*
X136385395Y-108331000D01*
X135572298Y-107517903D01*
X135328329Y-107589486D01*
X135207429Y-107844996D01*
X135138700Y-108119184D01*
X135124783Y-108401512D01*
X134010000Y-108401512D01*
X134010000Y-107338298D01*
X135751903Y-107338298D01*
X136565000Y-108151395D01*
X137378097Y-107338298D01*
X137306514Y-107094329D01*
X137051004Y-106973429D01*
X136776816Y-106904700D01*
X136494488Y-106890783D01*
X136214870Y-106932213D01*
X135948708Y-107027397D01*
X135823486Y-107094329D01*
X135751903Y-107338298D01*
X134010000Y-107338298D01*
X134010000Y-100908012D01*
X134054506Y-100944537D01*
G36*
X165837000Y-74270000D02*
G01*
X162643801Y-74270000D01*
X163325004Y-73588798D01*
X163354001Y-73565001D01*
X163382727Y-73529998D01*
X163448974Y-73449277D01*
X163519546Y-73317247D01*
X163530541Y-73281000D01*
X163563003Y-73173986D01*
X163574000Y-73062333D01*
X163574000Y-73062323D01*
X163577676Y-73025000D01*
X163574000Y-72987678D01*
X163574000Y-70649325D01*
X163577676Y-70612000D01*
X163574000Y-70574675D01*
X163574000Y-70574667D01*
X163563003Y-70463014D01*
X163519546Y-70319753D01*
X163448974Y-70187724D01*
X163354001Y-70071999D01*
X163325002Y-70048201D01*
X162615803Y-69339002D01*
X162592001Y-69309999D01*
X162476276Y-69215026D01*
X162344247Y-69144454D01*
X162200986Y-69100997D01*
X162089333Y-69090000D01*
X162089322Y-69090000D01*
X162052000Y-69086324D01*
X162014678Y-69090000D01*
X161805595Y-69090000D01*
X161768706Y-69020986D01*
X161583134Y-68794866D01*
X161357014Y-68609294D01*
X161099034Y-68471401D01*
X160819111Y-68386487D01*
X160600950Y-68365000D01*
X160455050Y-68365000D01*
X160236889Y-68386487D01*
X159956966Y-68471401D01*
X159698986Y-68609294D01*
X159472866Y-68794866D01*
X159448393Y-68824687D01*
X159427502Y-68755820D01*
X159368537Y-68645506D01*
X159289185Y-68548815D01*
X159192494Y-68469463D01*
X159082180Y-68410498D01*
X158962482Y-68374188D01*
X158838000Y-68361928D01*
X157138000Y-68361928D01*
X157013518Y-68374188D01*
X156893820Y-68410498D01*
X156783506Y-68469463D01*
X156686815Y-68548815D01*
X156607463Y-68645506D01*
X156548498Y-68755820D01*
X156512188Y-68875518D01*
X156499928Y-69000000D01*
X156499928Y-70700000D01*
X156512188Y-70824482D01*
X156548498Y-70944180D01*
X156607463Y-71054494D01*
X156686815Y-71151185D01*
X156783506Y-71230537D01*
X156893820Y-71289502D01*
X156974466Y-71313966D01*
X156890412Y-71389731D01*
X156716359Y-71623080D01*
X156591175Y-71885901D01*
X156546524Y-72033110D01*
X156667845Y-72263000D01*
X157861000Y-72263000D01*
X157861000Y-72243000D01*
X158115000Y-72243000D01*
X158115000Y-72263000D01*
X160401000Y-72263000D01*
X160401000Y-72243000D01*
X160655000Y-72243000D01*
X160655000Y-72263000D01*
X161848155Y-72263000D01*
X161969476Y-72033110D01*
X161924825Y-71885901D01*
X161799641Y-71623080D01*
X161625588Y-71389731D01*
X161409355Y-71194822D01*
X161292477Y-71125201D01*
X161357014Y-71090706D01*
X161583134Y-70905134D01*
X161768706Y-70679014D01*
X161781771Y-70654572D01*
X162054001Y-70926803D01*
X162054000Y-72710198D01*
X161948651Y-72815547D01*
X161969476Y-72746890D01*
X161848155Y-72517000D01*
X160655000Y-72517000D01*
X160655000Y-72537000D01*
X160401000Y-72537000D01*
X160401000Y-72517000D01*
X158115000Y-72517000D01*
X158115000Y-72537000D01*
X157861000Y-72537000D01*
X157861000Y-72517000D01*
X156667845Y-72517000D01*
X156546524Y-72746890D01*
X156591175Y-72894099D01*
X156716359Y-73156920D01*
X156808909Y-73281000D01*
X151548322Y-73281000D01*
X151510999Y-73277324D01*
X151473676Y-73281000D01*
X151473667Y-73281000D01*
X151362014Y-73291997D01*
X151218753Y-73335454D01*
X151086724Y-73406026D01*
X151086722Y-73406027D01*
X151086723Y-73406027D01*
X150999996Y-73477201D01*
X150999992Y-73477205D01*
X150970999Y-73500999D01*
X150947205Y-73529992D01*
X149475998Y-75001201D01*
X149447000Y-75024999D01*
X149423202Y-75053997D01*
X149423201Y-75053998D01*
X149352026Y-75140724D01*
X149281454Y-75272754D01*
X149273660Y-75298449D01*
X149237998Y-75416014D01*
X149227001Y-75527667D01*
X149223324Y-75565000D01*
X149227001Y-75602332D01*
X149227000Y-83909678D01*
X149223324Y-83947000D01*
X149227000Y-83984322D01*
X149227000Y-83984332D01*
X149237997Y-84095985D01*
X149280985Y-84237701D01*
X149281454Y-84239246D01*
X149352026Y-84371276D01*
X149377389Y-84402180D01*
X149446999Y-84487001D01*
X149476003Y-84510804D01*
X150154269Y-85189070D01*
X150103000Y-85446816D01*
X150103000Y-85749184D01*
X150161989Y-86045743D01*
X150277701Y-86325095D01*
X150445688Y-86576505D01*
X150659495Y-86790312D01*
X150878000Y-86936313D01*
X150878001Y-92491168D01*
X150874324Y-92528500D01*
X150888998Y-92677485D01*
X150932454Y-92820746D01*
X151003026Y-92952776D01*
X151065171Y-93028499D01*
X151098000Y-93068501D01*
X151126998Y-93092299D01*
X152114200Y-94079502D01*
X152137999Y-94108501D01*
X152166997Y-94132299D01*
X152253723Y-94203474D01*
X152289928Y-94222826D01*
X152289928Y-94518500D01*
X152302188Y-94642982D01*
X152338498Y-94762680D01*
X152397463Y-94872994D01*
X152476815Y-94969685D01*
X152573506Y-95049037D01*
X152632021Y-95080314D01*
X152496257Y-95283500D01*
X150985052Y-95283500D01*
X150946499Y-95279703D01*
X150907946Y-95283500D01*
X150907939Y-95283500D01*
X150806990Y-95293443D01*
X150792612Y-95294859D01*
X150761358Y-95304340D01*
X150644640Y-95339746D01*
X150508267Y-95412638D01*
X150466986Y-95446517D01*
X150418687Y-95486155D01*
X150418684Y-95486158D01*
X150388736Y-95510736D01*
X150364158Y-95540684D01*
X148951190Y-96953653D01*
X148921236Y-96978236D01*
X148823138Y-97097768D01*
X148750246Y-97234141D01*
X148705359Y-97382114D01*
X148694000Y-97497440D01*
X148694000Y-97497447D01*
X148690203Y-97536000D01*
X148694000Y-97574553D01*
X148694001Y-100512841D01*
X146201843Y-103005000D01*
X146065212Y-103005000D01*
X145845933Y-103048617D01*
X145639376Y-103134176D01*
X145453480Y-103258388D01*
X145295388Y-103416480D01*
X145171176Y-103602376D01*
X145085617Y-103808933D01*
X145042000Y-104028212D01*
X145042000Y-104223843D01*
X144676000Y-103857843D01*
X144676000Y-102654552D01*
X144679797Y-102615999D01*
X144676000Y-102577446D01*
X144676000Y-102577439D01*
X144664641Y-102462113D01*
X144619754Y-102314140D01*
X144546862Y-102177767D01*
X144448764Y-102058236D01*
X144418817Y-102033659D01*
X143330347Y-100945190D01*
X143305764Y-100915236D01*
X143186233Y-100817138D01*
X143049860Y-100744246D01*
X142901887Y-100699359D01*
X142786561Y-100688000D01*
X142786553Y-100688000D01*
X142748000Y-100684203D01*
X142709447Y-100688000D01*
X137182563Y-100688000D01*
X137198502Y-100658180D01*
X137234812Y-100538482D01*
X137247072Y-100414000D01*
X137247072Y-100023399D01*
X137347233Y-99969862D01*
X137466764Y-99871764D01*
X137491347Y-99841810D01*
X138830811Y-98502346D01*
X138860764Y-98477764D01*
X138958862Y-98358233D01*
X139031754Y-98221860D01*
X139040854Y-98191861D01*
X139076642Y-98073887D01*
X139086891Y-97969820D01*
X139088000Y-97958561D01*
X139088000Y-97958556D01*
X139091797Y-97920000D01*
X139088000Y-97881444D01*
X139088000Y-84620552D01*
X139091797Y-84581999D01*
X139088000Y-84543446D01*
X139088000Y-84543439D01*
X139076641Y-84428113D01*
X139069839Y-84405688D01*
X139059399Y-84371275D01*
X139031754Y-84280140D01*
X138958862Y-84143767D01*
X138900118Y-84072188D01*
X138885345Y-84054187D01*
X138885342Y-84054184D01*
X138860764Y-84024236D01*
X138830816Y-83999658D01*
X137361347Y-82530190D01*
X137336764Y-82500236D01*
X137247072Y-82426627D01*
X137247072Y-81958000D01*
X137234812Y-81833518D01*
X137198502Y-81713820D01*
X137139537Y-81603506D01*
X137060185Y-81506815D01*
X136963494Y-81427463D01*
X136853180Y-81368498D01*
X136733482Y-81332188D01*
X136609000Y-81319928D01*
X134409000Y-81319928D01*
X134284518Y-81332188D01*
X134164820Y-81368498D01*
X134054506Y-81427463D01*
X134010000Y-81463988D01*
X134010000Y-71009000D01*
X139054928Y-71009000D01*
X139054928Y-73009000D01*
X139081599Y-73279799D01*
X139160589Y-73540192D01*
X139288860Y-73780171D01*
X139461485Y-73990515D01*
X139671829Y-74163140D01*
X139911808Y-74291411D01*
X140172201Y-74370401D01*
X140408001Y-74393625D01*
X140408000Y-82861447D01*
X140404203Y-82900000D01*
X140408000Y-82938553D01*
X140408000Y-82938560D01*
X140419359Y-83053886D01*
X140439000Y-83118634D01*
X140439001Y-88011769D01*
X140435203Y-88050332D01*
X140450359Y-88204218D01*
X140495246Y-88352191D01*
X140495247Y-88352192D01*
X140568139Y-88488565D01*
X140608690Y-88537976D01*
X140641655Y-88578144D01*
X140641659Y-88578148D01*
X140666237Y-88608096D01*
X140696185Y-88632674D01*
X144288665Y-92225155D01*
X144214506Y-92264795D01*
X144117815Y-92344147D01*
X144038463Y-92440838D01*
X143979498Y-92551152D01*
X143943188Y-92670850D01*
X143930928Y-92795332D01*
X143930928Y-94995332D01*
X143943188Y-95119814D01*
X143979498Y-95239512D01*
X144038463Y-95349826D01*
X144117815Y-95446517D01*
X144214506Y-95525869D01*
X144324820Y-95584834D01*
X144444518Y-95621144D01*
X144569000Y-95633404D01*
X144884001Y-95633404D01*
X144884000Y-97766296D01*
X144700422Y-97864421D01*
X144436234Y-98081234D01*
X144219421Y-98345422D01*
X144058314Y-98646832D01*
X143959105Y-98973881D01*
X143925606Y-99314000D01*
X143959105Y-99654119D01*
X144058314Y-99981168D01*
X144219421Y-100282578D01*
X144436234Y-100546766D01*
X144700422Y-100763579D01*
X145001832Y-100924686D01*
X145328881Y-101023895D01*
X145583775Y-101049000D01*
X145754225Y-101049000D01*
X146009119Y-101023895D01*
X146336168Y-100924686D01*
X146637578Y-100763579D01*
X146901766Y-100546766D01*
X147118579Y-100282578D01*
X147279686Y-99981168D01*
X147378895Y-99654119D01*
X147412394Y-99314000D01*
X147378895Y-98973881D01*
X147279686Y-98646832D01*
X147118579Y-98345422D01*
X146901766Y-98081234D01*
X146637578Y-97864421D01*
X146454000Y-97766297D01*
X146454000Y-95633404D01*
X146769000Y-95633404D01*
X146893482Y-95621144D01*
X147013180Y-95584834D01*
X147123494Y-95525869D01*
X147220185Y-95446517D01*
X147299537Y-95349826D01*
X147358502Y-95239512D01*
X147394812Y-95119814D01*
X147407072Y-94995332D01*
X147407072Y-92795332D01*
X147394812Y-92670850D01*
X147358502Y-92551152D01*
X147299537Y-92440838D01*
X147220185Y-92344147D01*
X147123494Y-92264795D01*
X147013180Y-92205830D01*
X146893482Y-92169520D01*
X146769000Y-92157260D01*
X146378399Y-92157260D01*
X146324862Y-92057099D01*
X146275450Y-91996891D01*
X146251345Y-91967519D01*
X146251342Y-91967516D01*
X146226764Y-91937568D01*
X146196817Y-91912991D01*
X144490869Y-90207043D01*
X144569000Y-90214738D01*
X146769000Y-90214738D01*
X146893482Y-90202478D01*
X147013180Y-90166168D01*
X147123494Y-90107203D01*
X147220185Y-90027851D01*
X147299537Y-89931160D01*
X147358502Y-89820846D01*
X147394812Y-89701148D01*
X147407072Y-89576666D01*
X147407072Y-87376666D01*
X147394812Y-87252184D01*
X147358502Y-87132486D01*
X147299537Y-87022172D01*
X147220185Y-86925481D01*
X147123494Y-86846129D01*
X147013180Y-86787164D01*
X146893482Y-86750854D01*
X146769000Y-86738594D01*
X146429000Y-86738594D01*
X146429000Y-84619066D01*
X146637578Y-84507579D01*
X146901766Y-84290766D01*
X147118579Y-84026578D01*
X147279686Y-83725168D01*
X147378895Y-83398119D01*
X147412394Y-83058000D01*
X147378895Y-82717881D01*
X147310242Y-82491561D01*
X147704009Y-82097794D01*
X147733001Y-82074001D01*
X147756795Y-82045008D01*
X147756799Y-82045004D01*
X147827973Y-81958277D01*
X147827974Y-81958276D01*
X147898546Y-81826247D01*
X147942003Y-81682986D01*
X147953000Y-81571333D01*
X147953000Y-81571324D01*
X147956676Y-81534001D01*
X147953000Y-81496678D01*
X147953000Y-74397072D01*
X148943000Y-74397072D01*
X149067482Y-74384812D01*
X149187180Y-74348502D01*
X149297494Y-74289537D01*
X149394185Y-74210185D01*
X149473537Y-74113494D01*
X149532502Y-74003180D01*
X149568812Y-73883482D01*
X149581072Y-73759000D01*
X149581072Y-71088040D01*
X150246091Y-71088040D01*
X150340930Y-71352881D01*
X150485615Y-71594131D01*
X150674586Y-71802519D01*
X150900580Y-71970037D01*
X151154913Y-72090246D01*
X151288961Y-72130904D01*
X151511000Y-72008915D01*
X151511000Y-70866000D01*
X151765000Y-70866000D01*
X151765000Y-72008915D01*
X151987039Y-72130904D01*
X152121087Y-72090246D01*
X152375420Y-71970037D01*
X152601414Y-71802519D01*
X152790385Y-71594131D01*
X152935070Y-71352881D01*
X153029909Y-71088040D01*
X152908624Y-70866000D01*
X151765000Y-70866000D01*
X151511000Y-70866000D01*
X150367376Y-70866000D01*
X150246091Y-71088040D01*
X149581072Y-71088040D01*
X149581072Y-70389960D01*
X150246091Y-70389960D01*
X150367376Y-70612000D01*
X151511000Y-70612000D01*
X151511000Y-69469085D01*
X151765000Y-69469085D01*
X151765000Y-70612000D01*
X152908624Y-70612000D01*
X153029909Y-70389960D01*
X152935070Y-70125119D01*
X152790385Y-69883869D01*
X152601414Y-69675481D01*
X152375420Y-69507963D01*
X152121087Y-69387754D01*
X151987039Y-69347096D01*
X151765000Y-69469085D01*
X151511000Y-69469085D01*
X151288961Y-69347096D01*
X151154913Y-69387754D01*
X150900580Y-69507963D01*
X150674586Y-69675481D01*
X150485615Y-69883869D01*
X150340930Y-70125119D01*
X150246091Y-70389960D01*
X149581072Y-70389960D01*
X149581072Y-70259000D01*
X149568812Y-70134518D01*
X149532502Y-70014820D01*
X149473537Y-69904506D01*
X149394185Y-69807815D01*
X149297494Y-69728463D01*
X149187180Y-69669498D01*
X149067482Y-69633188D01*
X148943000Y-69620928D01*
X145443000Y-69620928D01*
X145318518Y-69633188D01*
X145198820Y-69669498D01*
X145088506Y-69728463D01*
X144991815Y-69807815D01*
X144912463Y-69904506D01*
X144853498Y-70014820D01*
X144817188Y-70134518D01*
X144804928Y-70259000D01*
X144804928Y-73759000D01*
X144817188Y-73883482D01*
X144853498Y-74003180D01*
X144912463Y-74113494D01*
X144991815Y-74210185D01*
X145088506Y-74289537D01*
X145165131Y-74330494D01*
X145068000Y-74320928D01*
X143318000Y-74320928D01*
X143022814Y-74350001D01*
X142738972Y-74436104D01*
X142477382Y-74575927D01*
X142248097Y-74764097D01*
X142059927Y-74993382D01*
X141978000Y-75146656D01*
X141978000Y-74393625D01*
X142213799Y-74370401D01*
X142474192Y-74291411D01*
X142714171Y-74163140D01*
X142924515Y-73990515D01*
X143097140Y-73780171D01*
X143225411Y-73540192D01*
X143304401Y-73279799D01*
X143331072Y-73009000D01*
X143331072Y-71009000D01*
X143304401Y-70738201D01*
X143225411Y-70477808D01*
X143097140Y-70237829D01*
X142924515Y-70027485D01*
X142714171Y-69854860D01*
X142474192Y-69726589D01*
X142213799Y-69647599D01*
X141943000Y-69620928D01*
X140443000Y-69620928D01*
X140172201Y-69647599D01*
X139911808Y-69726589D01*
X139671829Y-69854860D01*
X139461485Y-70027485D01*
X139288860Y-70237829D01*
X139160589Y-70477808D01*
X139081599Y-70738201D01*
X139054928Y-71009000D01*
X134010000Y-71009000D01*
X134010000Y-67970000D01*
X165837001Y-67970000D01*
X165837000Y-74270000D01*
X165837000Y-74270000D01*
G37*
X165837000Y-74270000D02*
X162643801Y-74270000D01*
X163325004Y-73588798D01*
X163354001Y-73565001D01*
X163382727Y-73529998D01*
X163448974Y-73449277D01*
X163519546Y-73317247D01*
X163530541Y-73281000D01*
X163563003Y-73173986D01*
X163574000Y-73062333D01*
X163574000Y-73062323D01*
X163577676Y-73025000D01*
X163574000Y-72987678D01*
X163574000Y-70649325D01*
X163577676Y-70612000D01*
X163574000Y-70574675D01*
X163574000Y-70574667D01*
X163563003Y-70463014D01*
X163519546Y-70319753D01*
X163448974Y-70187724D01*
X163354001Y-70071999D01*
X163325002Y-70048201D01*
X162615803Y-69339002D01*
X162592001Y-69309999D01*
X162476276Y-69215026D01*
X162344247Y-69144454D01*
X162200986Y-69100997D01*
X162089333Y-69090000D01*
X162089322Y-69090000D01*
X162052000Y-69086324D01*
X162014678Y-69090000D01*
X161805595Y-69090000D01*
X161768706Y-69020986D01*
X161583134Y-68794866D01*
X161357014Y-68609294D01*
X161099034Y-68471401D01*
X160819111Y-68386487D01*
X160600950Y-68365000D01*
X160455050Y-68365000D01*
X160236889Y-68386487D01*
X159956966Y-68471401D01*
X159698986Y-68609294D01*
X159472866Y-68794866D01*
X159448393Y-68824687D01*
X159427502Y-68755820D01*
X159368537Y-68645506D01*
X159289185Y-68548815D01*
X159192494Y-68469463D01*
X159082180Y-68410498D01*
X158962482Y-68374188D01*
X158838000Y-68361928D01*
X157138000Y-68361928D01*
X157013518Y-68374188D01*
X156893820Y-68410498D01*
X156783506Y-68469463D01*
X156686815Y-68548815D01*
X156607463Y-68645506D01*
X156548498Y-68755820D01*
X156512188Y-68875518D01*
X156499928Y-69000000D01*
X156499928Y-70700000D01*
X156512188Y-70824482D01*
X156548498Y-70944180D01*
X156607463Y-71054494D01*
X156686815Y-71151185D01*
X156783506Y-71230537D01*
X156893820Y-71289502D01*
X156974466Y-71313966D01*
X156890412Y-71389731D01*
X156716359Y-71623080D01*
X156591175Y-71885901D01*
X156546524Y-72033110D01*
X156667845Y-72263000D01*
X157861000Y-72263000D01*
X157861000Y-72243000D01*
X158115000Y-72243000D01*
X158115000Y-72263000D01*
X160401000Y-72263000D01*
X160401000Y-72243000D01*
X160655000Y-72243000D01*
X160655000Y-72263000D01*
X161848155Y-72263000D01*
X161969476Y-72033110D01*
X161924825Y-71885901D01*
X161799641Y-71623080D01*
X161625588Y-71389731D01*
X161409355Y-71194822D01*
X161292477Y-71125201D01*
X161357014Y-71090706D01*
X161583134Y-70905134D01*
X161768706Y-70679014D01*
X161781771Y-70654572D01*
X162054001Y-70926803D01*
X162054000Y-72710198D01*
X161948651Y-72815547D01*
X161969476Y-72746890D01*
X161848155Y-72517000D01*
X160655000Y-72517000D01*
X160655000Y-72537000D01*
X160401000Y-72537000D01*
X160401000Y-72517000D01*
X158115000Y-72517000D01*
X158115000Y-72537000D01*
X157861000Y-72537000D01*
X157861000Y-72517000D01*
X156667845Y-72517000D01*
X156546524Y-72746890D01*
X156591175Y-72894099D01*
X156716359Y-73156920D01*
X156808909Y-73281000D01*
X151548322Y-73281000D01*
X151510999Y-73277324D01*
X151473676Y-73281000D01*
X151473667Y-73281000D01*
X151362014Y-73291997D01*
X151218753Y-73335454D01*
X151086724Y-73406026D01*
X151086722Y-73406027D01*
X151086723Y-73406027D01*
X150999996Y-73477201D01*
X150999992Y-73477205D01*
X150970999Y-73500999D01*
X150947205Y-73529992D01*
X149475998Y-75001201D01*
X149447000Y-75024999D01*
X149423202Y-75053997D01*
X149423201Y-75053998D01*
X149352026Y-75140724D01*
X149281454Y-75272754D01*
X149273660Y-75298449D01*
X149237998Y-75416014D01*
X149227001Y-75527667D01*
X149223324Y-75565000D01*
X149227001Y-75602332D01*
X149227000Y-83909678D01*
X149223324Y-83947000D01*
X149227000Y-83984322D01*
X149227000Y-83984332D01*
X149237997Y-84095985D01*
X149280985Y-84237701D01*
X149281454Y-84239246D01*
X149352026Y-84371276D01*
X149377389Y-84402180D01*
X149446999Y-84487001D01*
X149476003Y-84510804D01*
X150154269Y-85189070D01*
X150103000Y-85446816D01*
X150103000Y-85749184D01*
X150161989Y-86045743D01*
X150277701Y-86325095D01*
X150445688Y-86576505D01*
X150659495Y-86790312D01*
X150878000Y-86936313D01*
X150878001Y-92491168D01*
X150874324Y-92528500D01*
X150888998Y-92677485D01*
X150932454Y-92820746D01*
X151003026Y-92952776D01*
X151065171Y-93028499D01*
X151098000Y-93068501D01*
X151126998Y-93092299D01*
X152114200Y-94079502D01*
X152137999Y-94108501D01*
X152166997Y-94132299D01*
X152253723Y-94203474D01*
X152289928Y-94222826D01*
X152289928Y-94518500D01*
X152302188Y-94642982D01*
X152338498Y-94762680D01*
X152397463Y-94872994D01*
X152476815Y-94969685D01*
X152573506Y-95049037D01*
X152632021Y-95080314D01*
X152496257Y-95283500D01*
X150985052Y-95283500D01*
X150946499Y-95279703D01*
X150907946Y-95283500D01*
X150907939Y-95283500D01*
X150806990Y-95293443D01*
X150792612Y-95294859D01*
X150761358Y-95304340D01*
X150644640Y-95339746D01*
X150508267Y-95412638D01*
X150466986Y-95446517D01*
X150418687Y-95486155D01*
X150418684Y-95486158D01*
X150388736Y-95510736D01*
X150364158Y-95540684D01*
X148951190Y-96953653D01*
X148921236Y-96978236D01*
X148823138Y-97097768D01*
X148750246Y-97234141D01*
X148705359Y-97382114D01*
X148694000Y-97497440D01*
X148694000Y-97497447D01*
X148690203Y-97536000D01*
X148694000Y-97574553D01*
X148694001Y-100512841D01*
X146201843Y-103005000D01*
X146065212Y-103005000D01*
X145845933Y-103048617D01*
X145639376Y-103134176D01*
X145453480Y-103258388D01*
X145295388Y-103416480D01*
X145171176Y-103602376D01*
X145085617Y-103808933D01*
X145042000Y-104028212D01*
X145042000Y-104223843D01*
X144676000Y-103857843D01*
X144676000Y-102654552D01*
X144679797Y-102615999D01*
X144676000Y-102577446D01*
X144676000Y-102577439D01*
X144664641Y-102462113D01*
X144619754Y-102314140D01*
X144546862Y-102177767D01*
X144448764Y-102058236D01*
X144418817Y-102033659D01*
X143330347Y-100945190D01*
X143305764Y-100915236D01*
X143186233Y-100817138D01*
X143049860Y-100744246D01*
X142901887Y-100699359D01*
X142786561Y-100688000D01*
X142786553Y-100688000D01*
X142748000Y-100684203D01*
X142709447Y-100688000D01*
X137182563Y-100688000D01*
X137198502Y-100658180D01*
X137234812Y-100538482D01*
X137247072Y-100414000D01*
X137247072Y-100023399D01*
X137347233Y-99969862D01*
X137466764Y-99871764D01*
X137491347Y-99841810D01*
X138830811Y-98502346D01*
X138860764Y-98477764D01*
X138958862Y-98358233D01*
X139031754Y-98221860D01*
X139040854Y-98191861D01*
X139076642Y-98073887D01*
X139086891Y-97969820D01*
X139088000Y-97958561D01*
X139088000Y-97958556D01*
X139091797Y-97920000D01*
X139088000Y-97881444D01*
X139088000Y-84620552D01*
X139091797Y-84581999D01*
X139088000Y-84543446D01*
X139088000Y-84543439D01*
X139076641Y-84428113D01*
X139069839Y-84405688D01*
X139059399Y-84371275D01*
X139031754Y-84280140D01*
X138958862Y-84143767D01*
X138900118Y-84072188D01*
X138885345Y-84054187D01*
X138885342Y-84054184D01*
X138860764Y-84024236D01*
X138830816Y-83999658D01*
X137361347Y-82530190D01*
X137336764Y-82500236D01*
X137247072Y-82426627D01*
X137247072Y-81958000D01*
X137234812Y-81833518D01*
X137198502Y-81713820D01*
X137139537Y-81603506D01*
X137060185Y-81506815D01*
X136963494Y-81427463D01*
X136853180Y-81368498D01*
X136733482Y-81332188D01*
X136609000Y-81319928D01*
X134409000Y-81319928D01*
X134284518Y-81332188D01*
X134164820Y-81368498D01*
X134054506Y-81427463D01*
X134010000Y-81463988D01*
X134010000Y-71009000D01*
X139054928Y-71009000D01*
X139054928Y-73009000D01*
X139081599Y-73279799D01*
X139160589Y-73540192D01*
X139288860Y-73780171D01*
X139461485Y-73990515D01*
X139671829Y-74163140D01*
X139911808Y-74291411D01*
X140172201Y-74370401D01*
X140408001Y-74393625D01*
X140408000Y-82861447D01*
X140404203Y-82900000D01*
X140408000Y-82938553D01*
X140408000Y-82938560D01*
X140419359Y-83053886D01*
X140439000Y-83118634D01*
X140439001Y-88011769D01*
X140435203Y-88050332D01*
X140450359Y-88204218D01*
X140495246Y-88352191D01*
X140495247Y-88352192D01*
X140568139Y-88488565D01*
X140608690Y-88537976D01*
X140641655Y-88578144D01*
X140641659Y-88578148D01*
X140666237Y-88608096D01*
X140696185Y-88632674D01*
X144288665Y-92225155D01*
X144214506Y-92264795D01*
X144117815Y-92344147D01*
X144038463Y-92440838D01*
X143979498Y-92551152D01*
X143943188Y-92670850D01*
X143930928Y-92795332D01*
X143930928Y-94995332D01*
X143943188Y-95119814D01*
X143979498Y-95239512D01*
X144038463Y-95349826D01*
X144117815Y-95446517D01*
X144214506Y-95525869D01*
X144324820Y-95584834D01*
X144444518Y-95621144D01*
X144569000Y-95633404D01*
X144884001Y-95633404D01*
X144884000Y-97766296D01*
X144700422Y-97864421D01*
X144436234Y-98081234D01*
X144219421Y-98345422D01*
X144058314Y-98646832D01*
X143959105Y-98973881D01*
X143925606Y-99314000D01*
X143959105Y-99654119D01*
X144058314Y-99981168D01*
X144219421Y-100282578D01*
X144436234Y-100546766D01*
X144700422Y-100763579D01*
X145001832Y-100924686D01*
X145328881Y-101023895D01*
X145583775Y-101049000D01*
X145754225Y-101049000D01*
X146009119Y-101023895D01*
X146336168Y-100924686D01*
X146637578Y-100763579D01*
X146901766Y-100546766D01*
X147118579Y-100282578D01*
X147279686Y-99981168D01*
X147378895Y-99654119D01*
X147412394Y-99314000D01*
X147378895Y-98973881D01*
X147279686Y-98646832D01*
X147118579Y-98345422D01*
X146901766Y-98081234D01*
X146637578Y-97864421D01*
X146454000Y-97766297D01*
X146454000Y-95633404D01*
X146769000Y-95633404D01*
X146893482Y-95621144D01*
X147013180Y-95584834D01*
X147123494Y-95525869D01*
X147220185Y-95446517D01*
X147299537Y-95349826D01*
X147358502Y-95239512D01*
X147394812Y-95119814D01*
X147407072Y-94995332D01*
X147407072Y-92795332D01*
X147394812Y-92670850D01*
X147358502Y-92551152D01*
X147299537Y-92440838D01*
X147220185Y-92344147D01*
X147123494Y-92264795D01*
X147013180Y-92205830D01*
X146893482Y-92169520D01*
X146769000Y-92157260D01*
X146378399Y-92157260D01*
X146324862Y-92057099D01*
X146275450Y-91996891D01*
X146251345Y-91967519D01*
X146251342Y-91967516D01*
X146226764Y-91937568D01*
X146196817Y-91912991D01*
X144490869Y-90207043D01*
X144569000Y-90214738D01*
X146769000Y-90214738D01*
X146893482Y-90202478D01*
X147013180Y-90166168D01*
X147123494Y-90107203D01*
X147220185Y-90027851D01*
X147299537Y-89931160D01*
X147358502Y-89820846D01*
X147394812Y-89701148D01*
X147407072Y-89576666D01*
X147407072Y-87376666D01*
X147394812Y-87252184D01*
X147358502Y-87132486D01*
X147299537Y-87022172D01*
X147220185Y-86925481D01*
X147123494Y-86846129D01*
X147013180Y-86787164D01*
X146893482Y-86750854D01*
X146769000Y-86738594D01*
X146429000Y-86738594D01*
X146429000Y-84619066D01*
X146637578Y-84507579D01*
X146901766Y-84290766D01*
X147118579Y-84026578D01*
X147279686Y-83725168D01*
X147378895Y-83398119D01*
X147412394Y-83058000D01*
X147378895Y-82717881D01*
X147310242Y-82491561D01*
X147704009Y-82097794D01*
X147733001Y-82074001D01*
X147756795Y-82045008D01*
X147756799Y-82045004D01*
X147827973Y-81958277D01*
X147827974Y-81958276D01*
X147898546Y-81826247D01*
X147942003Y-81682986D01*
X147953000Y-81571333D01*
X147953000Y-81571324D01*
X147956676Y-81534001D01*
X147953000Y-81496678D01*
X147953000Y-74397072D01*
X148943000Y-74397072D01*
X149067482Y-74384812D01*
X149187180Y-74348502D01*
X149297494Y-74289537D01*
X149394185Y-74210185D01*
X149473537Y-74113494D01*
X149532502Y-74003180D01*
X149568812Y-73883482D01*
X149581072Y-73759000D01*
X149581072Y-71088040D01*
X150246091Y-71088040D01*
X150340930Y-71352881D01*
X150485615Y-71594131D01*
X150674586Y-71802519D01*
X150900580Y-71970037D01*
X151154913Y-72090246D01*
X151288961Y-72130904D01*
X151511000Y-72008915D01*
X151511000Y-70866000D01*
X151765000Y-70866000D01*
X151765000Y-72008915D01*
X151987039Y-72130904D01*
X152121087Y-72090246D01*
X152375420Y-71970037D01*
X152601414Y-71802519D01*
X152790385Y-71594131D01*
X152935070Y-71352881D01*
X153029909Y-71088040D01*
X152908624Y-70866000D01*
X151765000Y-70866000D01*
X151511000Y-70866000D01*
X150367376Y-70866000D01*
X150246091Y-71088040D01*
X149581072Y-71088040D01*
X149581072Y-70389960D01*
X150246091Y-70389960D01*
X150367376Y-70612000D01*
X151511000Y-70612000D01*
X151511000Y-69469085D01*
X151765000Y-69469085D01*
X151765000Y-70612000D01*
X152908624Y-70612000D01*
X153029909Y-70389960D01*
X152935070Y-70125119D01*
X152790385Y-69883869D01*
X152601414Y-69675481D01*
X152375420Y-69507963D01*
X152121087Y-69387754D01*
X151987039Y-69347096D01*
X151765000Y-69469085D01*
X151511000Y-69469085D01*
X151288961Y-69347096D01*
X151154913Y-69387754D01*
X150900580Y-69507963D01*
X150674586Y-69675481D01*
X150485615Y-69883869D01*
X150340930Y-70125119D01*
X150246091Y-70389960D01*
X149581072Y-70389960D01*
X149581072Y-70259000D01*
X149568812Y-70134518D01*
X149532502Y-70014820D01*
X149473537Y-69904506D01*
X149394185Y-69807815D01*
X149297494Y-69728463D01*
X149187180Y-69669498D01*
X149067482Y-69633188D01*
X148943000Y-69620928D01*
X145443000Y-69620928D01*
X145318518Y-69633188D01*
X145198820Y-69669498D01*
X145088506Y-69728463D01*
X144991815Y-69807815D01*
X144912463Y-69904506D01*
X144853498Y-70014820D01*
X144817188Y-70134518D01*
X144804928Y-70259000D01*
X144804928Y-73759000D01*
X144817188Y-73883482D01*
X144853498Y-74003180D01*
X144912463Y-74113494D01*
X144991815Y-74210185D01*
X145088506Y-74289537D01*
X145165131Y-74330494D01*
X145068000Y-74320928D01*
X143318000Y-74320928D01*
X143022814Y-74350001D01*
X142738972Y-74436104D01*
X142477382Y-74575927D01*
X142248097Y-74764097D01*
X142059927Y-74993382D01*
X141978000Y-75146656D01*
X141978000Y-74393625D01*
X142213799Y-74370401D01*
X142474192Y-74291411D01*
X142714171Y-74163140D01*
X142924515Y-73990515D01*
X143097140Y-73780171D01*
X143225411Y-73540192D01*
X143304401Y-73279799D01*
X143331072Y-73009000D01*
X143331072Y-71009000D01*
X143304401Y-70738201D01*
X143225411Y-70477808D01*
X143097140Y-70237829D01*
X142924515Y-70027485D01*
X142714171Y-69854860D01*
X142474192Y-69726589D01*
X142213799Y-69647599D01*
X141943000Y-69620928D01*
X140443000Y-69620928D01*
X140172201Y-69647599D01*
X139911808Y-69726589D01*
X139671829Y-69854860D01*
X139461485Y-70027485D01*
X139288860Y-70237829D01*
X139160589Y-70477808D01*
X139081599Y-70738201D01*
X139054928Y-71009000D01*
X134010000Y-71009000D01*
X134010000Y-67970000D01*
X165837001Y-67970000D01*
X165837000Y-74270000D01*
G36*
X137518001Y-84907159D02*
G01*
X137518000Y-97594843D01*
X137179177Y-97933666D01*
X137139537Y-97859506D01*
X137060185Y-97762815D01*
X136963494Y-97683463D01*
X136853180Y-97624498D01*
X136733482Y-97588188D01*
X136609000Y-97575928D01*
X134409000Y-97575928D01*
X134284518Y-97588188D01*
X134164820Y-97624498D01*
X134054506Y-97683463D01*
X134010000Y-97719988D01*
X134010000Y-94759884D01*
X134034469Y-94809661D01*
X134241178Y-95079759D01*
X134496609Y-95304340D01*
X134790946Y-95474774D01*
X135112877Y-95584511D01*
X135382000Y-95466932D01*
X135382000Y-94022332D01*
X135636000Y-94022332D01*
X135636000Y-95466932D01*
X135905123Y-95584511D01*
X136227054Y-95474774D01*
X136521391Y-95304340D01*
X136776822Y-95079759D01*
X136983531Y-94809661D01*
X137133575Y-94504426D01*
X137198175Y-94291454D01*
X137080125Y-94022332D01*
X135636000Y-94022332D01*
X135382000Y-94022332D01*
X135362000Y-94022332D01*
X135362000Y-93768332D01*
X135382000Y-93768332D01*
X135382000Y-92323732D01*
X135636000Y-92323732D01*
X135636000Y-93768332D01*
X137080125Y-93768332D01*
X137198175Y-93499210D01*
X137133575Y-93286238D01*
X136983531Y-92981003D01*
X136776822Y-92710905D01*
X136521391Y-92486324D01*
X136227054Y-92315890D01*
X135905123Y-92206153D01*
X135636000Y-92323732D01*
X135382000Y-92323732D01*
X135112877Y-92206153D01*
X134790946Y-92315890D01*
X134496609Y-92486324D01*
X134241178Y-92710905D01*
X134034469Y-92981003D01*
X134010000Y-93030780D01*
X134010000Y-89341218D01*
X134034469Y-89390995D01*
X134241178Y-89661093D01*
X134496609Y-89885674D01*
X134790946Y-90056108D01*
X135112877Y-90165845D01*
X135382000Y-90048266D01*
X135382000Y-88603666D01*
X135636000Y-88603666D01*
X135636000Y-90048266D01*
X135905123Y-90165845D01*
X136227054Y-90056108D01*
X136521391Y-89885674D01*
X136776822Y-89661093D01*
X136983531Y-89390995D01*
X137133575Y-89085760D01*
X137198175Y-88872788D01*
X137080125Y-88603666D01*
X135636000Y-88603666D01*
X135382000Y-88603666D01*
X135362000Y-88603666D01*
X135362000Y-88349666D01*
X135382000Y-88349666D01*
X135382000Y-86905066D01*
X135636000Y-86905066D01*
X135636000Y-88349666D01*
X137080125Y-88349666D01*
X137198175Y-88080544D01*
X137133575Y-87867572D01*
X136983531Y-87562337D01*
X136776822Y-87292239D01*
X136521391Y-87067658D01*
X136227054Y-86897224D01*
X135905123Y-86787487D01*
X135636000Y-86905066D01*
X135382000Y-86905066D01*
X135112877Y-86787487D01*
X134790946Y-86897224D01*
X134496609Y-87067658D01*
X134241178Y-87292239D01*
X134034469Y-87562337D01*
X134010000Y-87612114D01*
X134010000Y-84652012D01*
X134054506Y-84688537D01*
X134164820Y-84747502D01*
X134284518Y-84783812D01*
X134409000Y-84796072D01*
X136609000Y-84796072D01*
X136733482Y-84783812D01*
X136853180Y-84747502D01*
X136963494Y-84688537D01*
X137060185Y-84609185D01*
X137132235Y-84521392D01*
X137518001Y-84907159D01*
X137518001Y-84907159D01*
G37*
X137518001Y-84907159D02*
X137518000Y-97594843D01*
X137179177Y-97933666D01*
X137139537Y-97859506D01*
X137060185Y-97762815D01*
X136963494Y-97683463D01*
X136853180Y-97624498D01*
X136733482Y-97588188D01*
X136609000Y-97575928D01*
X134409000Y-97575928D01*
X134284518Y-97588188D01*
X134164820Y-97624498D01*
X134054506Y-97683463D01*
X134010000Y-97719988D01*
X134010000Y-94759884D01*
X134034469Y-94809661D01*
X134241178Y-95079759D01*
X134496609Y-95304340D01*
X134790946Y-95474774D01*
X135112877Y-95584511D01*
X135382000Y-95466932D01*
X135382000Y-94022332D01*
X135636000Y-94022332D01*
X135636000Y-95466932D01*
X135905123Y-95584511D01*
X136227054Y-95474774D01*
X136521391Y-95304340D01*
X136776822Y-95079759D01*
X136983531Y-94809661D01*
X137133575Y-94504426D01*
X137198175Y-94291454D01*
X137080125Y-94022332D01*
X135636000Y-94022332D01*
X135382000Y-94022332D01*
X135362000Y-94022332D01*
X135362000Y-93768332D01*
X135382000Y-93768332D01*
X135382000Y-92323732D01*
X135636000Y-92323732D01*
X135636000Y-93768332D01*
X137080125Y-93768332D01*
X137198175Y-93499210D01*
X137133575Y-93286238D01*
X136983531Y-92981003D01*
X136776822Y-92710905D01*
X136521391Y-92486324D01*
X136227054Y-92315890D01*
X135905123Y-92206153D01*
X135636000Y-92323732D01*
X135382000Y-92323732D01*
X135112877Y-92206153D01*
X134790946Y-92315890D01*
X134496609Y-92486324D01*
X134241178Y-92710905D01*
X134034469Y-92981003D01*
X134010000Y-93030780D01*
X134010000Y-89341218D01*
X134034469Y-89390995D01*
X134241178Y-89661093D01*
X134496609Y-89885674D01*
X134790946Y-90056108D01*
X135112877Y-90165845D01*
X135382000Y-90048266D01*
X135382000Y-88603666D01*
X135636000Y-88603666D01*
X135636000Y-90048266D01*
X135905123Y-90165845D01*
X136227054Y-90056108D01*
X136521391Y-89885674D01*
X136776822Y-89661093D01*
X136983531Y-89390995D01*
X137133575Y-89085760D01*
X137198175Y-88872788D01*
X137080125Y-88603666D01*
X135636000Y-88603666D01*
X135382000Y-88603666D01*
X135362000Y-88603666D01*
X135362000Y-88349666D01*
X135382000Y-88349666D01*
X135382000Y-86905066D01*
X135636000Y-86905066D01*
X135636000Y-88349666D01*
X137080125Y-88349666D01*
X137198175Y-88080544D01*
X137133575Y-87867572D01*
X136983531Y-87562337D01*
X136776822Y-87292239D01*
X136521391Y-87067658D01*
X136227054Y-86897224D01*
X135905123Y-86787487D01*
X135636000Y-86905066D01*
X135382000Y-86905066D01*
X135112877Y-86787487D01*
X134790946Y-86897224D01*
X134496609Y-87067658D01*
X134241178Y-87292239D01*
X134034469Y-87562337D01*
X134010000Y-87612114D01*
X134010000Y-84652012D01*
X134054506Y-84688537D01*
X134164820Y-84747502D01*
X134284518Y-84783812D01*
X134409000Y-84796072D01*
X136609000Y-84796072D01*
X136733482Y-84783812D01*
X136853180Y-84747502D01*
X136963494Y-84688537D01*
X137060185Y-84609185D01*
X137132235Y-84521392D01*
X137518001Y-84907159D01*
M02*
